solid MATLAB_1
facet normal 0 0 1
  outer loop
   vertex 0.999941111 -0.0108520864 0
   vertex 0.223276556 -0.974755108 0
   vertex 0.233841047 -0.97227484 0
  endloop
 endfacet
facet normal 0 0 1
  outer loop
   vertex -0.999278784 0.0379721262 0
   vertex -0.999632001 0.0271261428 0
   vertex 0.999941111 0.0108520864 0
  endloop
 endfacet
facet normal 0 0 1
  outer loop
   vertex -0.859163582 -0.511701047 0
   vertex -0.853560209 -0.520994186 0
   vertex 0.999941111 -0.0108520864 0
  endloop
 endfacet
facet normal 0 0 1
  outer loop
   vertex -0.527923882 -0.849291682 0
   vertex 0.999941111 -0.0108520864 0
   vertex -0.537108898 -0.843512893 0
  endloop
 endfacet
facet normal 0 0 1
  outer loop
   vertex 0.709978461 -0.704223394 0
   vertex 0.71757859 -0.696477592 0
   vertex 0.999941111 -0.0108520864 0
  endloop
 endfacet
facet normal 0 0 1
  outer loop
   vertex 0.35811466 -0.933677614 0
   vertex 0.368225455 -0.929736555 0
   vertex 0.999941111 -0.0108520864 0
  endloop
 endfacet
facet normal 0 0 1
  outer loop
   vertex 0.999941111 0.0108520864 0
   vertex -0.196753055 0.980453074 0
   vertex -0.207380921 0.978260279 0
  endloop
 endfacet
facet normal 0 0 1
  outer loop
   vertex 0.963424742 -0.267978996 0
   vertex 0.999941111 -0.0108520864 0
   vertex 0.960460007 -0.278417915 0
  endloop
 endfacet
facet normal 0 0 1
  outer loop
   vertex 0.999941111 -0.0108520864 0
   vertex -0.432835907 -0.901472747 0
   vertex -0.423028022 -0.906116605 0
  endloop
 endfacet
facet normal 0 0 1
  outer loop
   vertex 0.999941111 -0.0108520864 0
   vertex -0.207380921 -0.978260279 0
   vertex -0.196753055 -0.980453074 0
  endloop
 endfacet
facet normal 0 0 1
  outer loop
   vertex 0.999941111 -0.0108520864 0
   vertex 0.306952149 -0.951724946 0
   vertex 0.317261785 -0.948337972 0
  endloop
 endfacet
facet normal 0 0 1
  outer loop
   vertex -0.373264641 -0.927724898 0
   vertex -0.363175392 -0.931720793 0
   vertex 0.999941111 -0.0108520864 0
  endloop
 endfacet
facet normal 0 0 1
  outer loop
   vertex -0.757845283 0.652434289 0
   vertex 0.999941111 0.0108520864 0
   vertex -0.750720739 0.660619676 0
  endloop
 endfacet
facet normal 0 0 1
  outer loop
   vertex 0.999941111 -0.0108520864 0
   vertex -0.616801023 -0.78711915 0
   vertex -0.6082232 -0.793766022 0
  endloop
 endfacet
facet normal 0 0 1
  outer loop
   vertex 0.999941111 -0.0108520864 0
   vertex -0.998219371 -0.0596494041 0
   vertex -0.997513294 -0.0704781488 0
  endloop
 endfacet
facet normal 0 0 1
  outer loop
   vertex -0.930732071 -0.365701765 0
   vertex 0.999941111 -0.0108520864 0
   vertex -0.934645712 -0.35558033 0
  endloop
 endfacet
facet normal 0 0 1
  outer loop
   vertex 0.709978461 0.704223394 0
   vertex 0.702294707 0.711886346 0
   vertex 0.999941111 0.0108520864 0
  endloop
 endfacet
facet normal 0 0 1
  outer loop
   vertex -0.990813971 -0.135231748 0
   vertex -0.989288151 -0.145975679 0
   vertex 0.999941111 -0.0108520864 0
  endloop
 endfacet
facet normal 0 0 1
  outer loop
   vertex -0.926708817 0.375780135 0
   vertex -0.930732071 0.365701765 0
   vertex 0.999941111 0.0108520864 0
  endloop
 endfacet
facet normal 0 0 1
  outer loop
   vertex -0.186102003 0.982530415 0
   vertex 0.999941111 0.0108520864 0
   vertex -0.175429046 0.984492064 0
  endloop
 endfacet
facet normal 0 0 1
  outer loop
   vertex 0.999941111 0.0108520864 0
   vertex -0.452297598 0.891867101 0
   vertex -0.46194914 0.886906445 0
  endloop
 endfacet
facet normal 0 0 1
  outer loop
   vertex -0.985887229 -0.167410702 0
   vertex -0.984012544 -0.178099275 0
   vertex 0.999941111 -0.0108520864 0
  endloop
 endfacet
facet normal 0 0 1
  outer loop
   vertex -0.260129064 0.965573847 0
   vertex -0.270591736 0.962694168 0
   vertex 0.999941111 0.0108520864 0
  endloop
 endfacet
facet normal 0 0 1
  outer loop
   vertex 0.999941111 0.0108520864 0
   vertex 0.0406829752 0.999172091 0
   vertex 0.0298379883 0.999554753 0
  endloop
 endfacet
facet normal 0 0 1
  outer loop
   vertex 0.999941111 0.0108520864 0
   vertex 0.485837489 0.874049127 0
   vertex 0.476324081 0.879269779 0
  endloop
 endfacet
facet normal 0 0 1
  outer loop
   vertex 0.954191625 0.299196124 0
   vertex 0.999941111 0.0108520864 0
   vertex 0.957382202 0.288824022 0
  endloop
 endfacet
facet normal 0 0 1
  outer loop
   vertex 0.978819251 0.204726204 0
   vertex 0.999941111 0.0108520864 0
   vertex 0.980983257 0.194092408 0
  endloop
 endfacet
facet normal 0 0 1
  outer loop
   vertex 0.984964371 0.172757536 0
   vertex 0.999941111 0.0108520864 0
   vertex 0.986781061 0.162058949 0
  endloop
 endfacet
facet normal 0 0 1
  outer loop
   vertex 0.999941111 0.0108520864 0
   vertex 0.754294157 0.656536639 0
   vertex 0.747125268 0.664683282 0
  endloop
 endfacet
facet normal 0 0 1
  outer loop
   vertex 0.999941111 0.0108520864 0
   vertex 0.988481581 0.151341274 0
   vertex 0.986781061 0.162058949 0
  endloop
 endfacet
facet normal 0 0 1
  outer loop
   vertex 0.99153316 -0.129853725 0
   vertex 0.999941111 -0.0108520864 0
   vertex 0.990065634 -0.140605778 0
  endloop
 endfacet
facet normal 0 0 1
  outer loop
   vertex 0.992883921 0.119086385 0
   vertex 0.99153316 0.129853725 0
   vertex 0.999941111 0.0108520864 0
  endloop
 endfacet
facet normal 0 0 1
  outer loop
   vertex 0.999941111 -0.0108520864 0
   vertex 0.457130104 -0.889399827 0
   vertex 0.466754586 -0.884386897 0
  endloop
 endfacet
facet normal 0 0 1
  outer loop
   vertex 0.559792519 0.828632832 0
   vertex 0.999941111 0.0108520864 0
   vertex 0.568751514 0.822509408 0
  endloop
 endfacet
facet normal 0 0 1
  outer loop
   vertex 0.999941111 -0.0108520864 0
   vertex 0.883117378 -0.469152153 0
   vertex 0.888156414 -0.459541321 0
  endloop
 endfacet
facet normal 0 0 1
  outer loop
   vertex 0.999941111 -0.0108520864 0
   vertex 0.902643681 -0.430388659 0
   vertex 0.907260895 -0.420568198 0
  endloop
 endfacet
facet normal 0 0 1
  outer loop
   vertex 0.999941111 -0.0108520864 0
   vertex -0.564280331 -0.82558322 0
   vertex -0.555288255 -0.831657946 0
  endloop
 endfacet
facet normal 0 0 1
  outer loop
   vertex -0.764880598 -0.644172072 0
   vertex -0.757845283 -0.652434289 0
   vertex 0.999941111 -0.0108520864 0
  endloop
 endfacet
facet normal 0 0 1
  outer loop
   vertex -0.616801023 -0.78711915 0
   vertex 0.999941111 -0.0108520864 0
   vertex -0.625306189 -0.780379534 0
  endloop
 endfacet
facet normal 0 0 1
  outer loop
   vertex -0.452297598 -0.891867101 0
   vertex 0.999941111 -0.0108520864 0
   vertex -0.46194914 -0.886906445 0
  endloop
 endfacet
facet normal 0 0 1
  outer loop
   vertex 0.999941111 -0.0108520864 0
   vertex -0.518676639 -0.854970515 0
   vertex -0.5093683 -0.860548615 0
  endloop
 endfacet
facet normal 0 0 1
  outer loop
   vertex 0.999941111 -0.0108520864 0
   vertex -0.481087863 -0.876672387 0
   vertex -0.471546263 -0.881841302 0
  endloop
 endfacet
facet normal 0 0 1
  outer loop
   vertex -0.3933101 -0.919405878 0
   vertex 0.999941111 -0.0108520864 0
   vertex -0.403263956 -0.915083706 0
  endloop
 endfacet
facet normal 0 0 1
  outer loop
   vertex -0.207380921 -0.978260279 0
   vertex 0.999941111 -0.0108520864 0
   vertex -0.217984378 -0.975952268 0
  endloop
 endfacet
facet normal 0 0 1
  outer loop
   vertex 0.999941111 -0.0108520864 0
   vertex -0.186102003 -0.982530415 0
   vertex -0.175429046 -0.984492064 0
  endloop
 endfacet
facet normal 0 0 1
  outer loop
   vertex -0.228562161 -0.973529339 0
   vertex -0.217984378 -0.975952268 0
   vertex 0.999941111 -0.0108520864 0
  endloop
 endfacet
facet normal 0 0 1
  outer loop
   vertex -0.270591736 -0.962694168 0
   vertex 0.999941111 -0.0108520864 0
   vertex -0.281022549 -0.95970118 0
  endloop
 endfacet
facet normal 0 0 1
  outer loop
   vertex 0.999941111 -0.0108520864 0
   vertex -0.471546263 -0.881841302 0
   vertex -0.46194914 -0.886906445 0
  endloop
 endfacet
facet normal 0 0 1
  outer loop
   vertex 0.999941111 -0.0108520864 0
   vertex -0.452297598 -0.891867101 0
   vertex -0.4425928 -0.896722674 0
  endloop
 endfacet
facet normal 0 0 1
  outer loop
   vertex 0.999941111 -0.0108520864 0
   vertex -0.682725549 -0.730674922 0
   vertex -0.674756348 -0.738040566 0
  endloop
 endfacet
facet normal 0 0 1
  outer loop
   vertex -0.798689902 -0.601742804 0
   vertex 0.999941111 -0.0108520864 0
   vertex -0.805172741 -0.593040347 0
  endloop
 endfacet
facet normal 0 0 1
  outer loop
   vertex -0.792113066 -0.610374391 0
   vertex 0.999941111 -0.0108520864 0
   vertex -0.798689902 -0.601742804 0
  endloop
 endfacet
facet normal 0 0 1
  outer loop
   vertex 0.999941111 -0.0108520864 0
   vertex -0.77182585 -0.635833979 0
   vertex -0.764880598 -0.644172072 0
  endloop
 endfacet
facet normal 0 0 1
  outer loop
   vertex -0.824049354 -0.566518009 0
   vertex -0.817853212 -0.575426877 0
   vertex 0.999941111 -0.0108520864 0
  endloop
 endfacet
facet normal 0 0 1
  outer loop
   vertex -0.952554166 -0.304369032 0
   vertex 0.999941111 -0.0108520864 0
   vertex -0.95580101 -0.294014394 0
  endloop
 endfacet
facet normal 0 0 1
  outer loop
   vertex -0.890636742 -0.45471552 0
   vertex -0.88564992 -0.464353561 0
   vertex 0.999941111 -0.0108520864 0
  endloop
 endfacet
facet normal 0 0 1
  outer loop
   vertex -0.977694035 -0.210034132 0
   vertex 0.999941111 -0.0108520864 0
   vertex -0.979915679 -0.199412242 0
  endloop
 endfacet
facet normal 0 0 1
  outer loop
   vertex 0.999941111 -0.0108520864 0
   vertex -0.970339477 -0.241746396 0
   vertex -0.967658997 -0.252261877 0
  endloop
 endfacet
facet normal 0 0 1
  outer loop
   vertex -0.975357294 -0.220631287 0
   vertex -0.972905636 -0.231202453 0
   vertex 0.999941111 -0.0108520864 0
  endloop
 endfacet
facet normal 0 0 1
  outer loop
   vertex -0.949195206 -0.314687818 0
   vertex -0.945724487 -0.32496956 0
   vertex 0.999941111 -0.0108520864 0
  endloop
 endfacet
facet normal 0 0 1
  outer loop
   vertex -0.996689796 -0.0812985897 0
   vertex -0.995748878 -0.0921094567 0
   vertex 0.999941111 -0.0108520864 0
  endloop
 endfacet
facet normal 0 0 1
  outer loop
   vertex 0.999941111 -0.0108520864 0
   vertex -0.982021928 -0.188766867 0
   vertex -0.979915679 -0.199412242 0
  endloop
 endfacet
facet normal 0 0 1
  outer loop
   vertex -0.987645864 -0.156702414 0
   vertex -0.985887229 -0.167410702 0
   vertex 0.999941111 -0.0108520864 0
  endloop
 endfacet
facet normal 0 0 1
  outer loop
   vertex -0.984012544 -0.178099275 0
   vertex -0.982021928 -0.188766867 0
   vertex 0.999941111 -0.0108520864 0
  endloop
 endfacet
facet normal 0 0 1
  outer loop
   vertex 0.999941111 -0.0108520864 0
   vertex -0.999985278 -0.00542586762 0
   vertex -0.999867499 -0.0162769631 0
  endloop
 endfacet
facet normal 0 0 1
  outer loop
   vertex -0.998807907 -0.0488136411 0
   vertex -0.998219371 -0.0596494041 0
   vertex 0.999941111 -0.0108520864 0
  endloop
 endfacet
facet normal 0 0 1
  outer loop
   vertex -0.997513294 -0.0704781488 0
   vertex -0.996689796 -0.0812985897 0
   vertex 0.999941111 -0.0108520864 0
  endloop
 endfacet
facet normal 0 0 1
  outer loop
   vertex -0.992223144 -0.124471888 0
   vertex -0.990813971 -0.135231748 0
   vertex 0.999941111 -0.0108520864 0
  endloop
 endfacet
facet normal 0 0 1
  outer loop
   vertex 0.999941111 -0.0108520864 0
   vertex 0.999941111 0.0108520864 0
   vertex -0.999985278 0.00542586762 0
  endloop
 endfacet
facet normal 0 0 1
  outer loop
   vertex -0.999985278 0.00542586762 0
   vertex -0.999985278 -0.00542586762 0
   vertex 0.999941111 -0.0108520864 0
  endloop
 endfacet
facet normal 0 0 1
  outer loop
   vertex -0.999985278 0.00542586762 0
   vertex 0.999941111 0.0108520864 0
   vertex -0.999867499 0.0162769631 0
  endloop
 endfacet
facet normal 0 0 1
  outer loop
   vertex 0.999941111 0.0108520864 0
   vertex -0.998807907 0.0488136411 0
   vertex -0.999278784 0.0379721262 0
  endloop
 endfacet
facet normal 0 0 1
  outer loop
   vertex 0.999941111 0.0108520864 0
   vertex -0.999632001 0.0271261428 0
   vertex -0.999867499 0.0162769631 0
  endloop
 endfacet
facet normal 0 0 1
  outer loop
   vertex -0.987645864 0.156702414 0
   vertex -0.989288151 0.145975679 0
   vertex 0.999941111 0.0108520864 0
  endloop
 endfacet
facet normal 0 0 1
  outer loop
   vertex -0.992223144 0.124471888 0
   vertex -0.993515432 0.113697372 0
   vertex 0.999941111 0.0108520864 0
  endloop
 endfacet
facet normal 0 0 1
  outer loop
   vertex -0.985887229 0.167410702 0
   vertex 0.999941111 0.0108520864 0
   vertex -0.984012544 0.178099275 0
  endloop
 endfacet
facet normal 0 0 1
  outer loop
   vertex -0.982021928 0.188766867 0
   vertex -0.984012544 0.178099275 0
   vertex 0.999941111 0.0108520864 0
  endloop
 endfacet
facet normal 0 0 1
  outer loop
   vertex -0.967658997 0.252261877 0
   vertex -0.970339477 0.241746396 0
   vertex 0.999941111 0.0108520864 0
  endloop
 endfacet
facet normal 0 0 1
  outer loop
   vertex -0.88564992 0.464353561 0
   vertex 0.999941111 0.0108520864 0
   vertex -0.880558789 0.473936915 0
  endloop
 endfacet
facet normal 0 0 1
  outer loop
   vertex -0.904965639 0.425484687 0
   vertex -0.909529507 0.415639341 0
   vertex 0.999941111 0.0108520864 0
  endloop
 endfacet
facet normal 0 0 1
  outer loop
   vertex -0.798689902 0.601742804 0
   vertex -0.805172741 0.593040347 0
   vertex 0.999941111 0.0108520864 0
  endloop
 endfacet
facet normal 0 0 1
  outer loop
   vertex -0.918335438 0.395802975 0
   vertex -0.922576487 0.385814279 0
   vertex 0.999941111 0.0108520864 0
  endloop
 endfacet
facet normal 0 0 1
  outer loop
   vertex -0.913986325 0.405745029 0
   vertex -0.918335438 0.395802975 0
   vertex 0.999941111 0.0108520864 0
  endloop
 endfacet
facet normal 0 0 1
  outer loop
   vertex 0.999941111 0.0108520864 0
   vertex -0.481087863 0.876672387 0
   vertex -0.49057281 0.871400177 0
  endloop
 endfacet
facet normal 0 0 1
  outer loop
   vertex 0.999941111 0.0108520864 0
   vertex -0.363175392 0.931720793 0
   vertex -0.373264641 0.927724898 0
  endloop
 endfacet
facet normal 0 0 1
  outer loop
   vertex -0.332655817 0.943048298 0
   vertex -0.342869788 0.93938297 0
   vertex 0.999941111 0.0108520864 0
  endloop
 endfacet
facet normal 0 0 1
  outer loop
   vertex -0.154022411 0.988067329 0
   vertex 0.999941111 0.0108520864 0
   vertex -0.14329125 0.989680588 0
  endloop
 endfacet
facet normal 0 0 1
  outer loop
   vertex -0.132543221 0.991177201 0
   vertex -0.14329125 0.989680588 0
   vertex 0.999941111 0.0108520864 0
  endloop
 endfacet
facet normal 0 0 1
  outer loop
   vertex -0.291420281 0.956595123 0
   vertex -0.301783681 0.953376412 0
   vertex 0.999941111 0.0108520864 0
  endloop
 endfacet
facet normal 0 0 1
  outer loop
   vertex -0.207380921 0.978260279 0
   vertex -0.217984378 0.975952268 0
   vertex 0.999941111 0.0108520864 0
  endloop
 endfacet
facet normal 0 0 1
  outer loop
   vertex -0.353043377 0.935606956 0
   vertex 0.999941111 0.0108520864 0
   vertex -0.342869788 0.93938297 0
  endloop
 endfacet
facet normal 0 0 1
  outer loop
   vertex 0.999941111 0.0108520864 0
   vertex -0.633737683 0.773548007 0
   vertex -0.642094612 0.766625404 0
  endloop
 endfacet
facet normal 0 0 1
  outer loop
   vertex -0.38330996 0.923619747 0
   vertex 0.999941111 0.0108520864 0
   vertex -0.373264641 0.927724898 0
  endloop
 endfacet
facet normal 0 0 1
  outer loop
   vertex -0.77182585 0.635833979 0
   vertex -0.778680205 0.627421021 0
   vertex 0.999941111 0.0108520864 0
  endloop
 endfacet
facet normal 0 0 1
  outer loop
   vertex -0.698421776 0.71568644 0
   vertex 0.999941111 0.0108520864 0
   vertex -0.690614283 0.723223269 0
  endloop
 endfacet
facet normal 0 0 1
  outer loop
   vertex -0.706146955 0.708065271 0
   vertex -0.713788986 0.700360775 0
   vertex 0.999941111 0.0108520864 0
  endloop
 endfacet
facet normal 0 0 1
  outer loop
   vertex -0.616801023 0.78711915 0
   vertex -0.625306189 0.780379534 0
   vertex 0.999941111 0.0108520864 0
  endloop
 endfacet
facet normal 0 0 1
  outer loop
   vertex 0.928734124 0.370746404 0
   vertex 0.999941111 0.0108520864 0
   vertex 0.932702661 0.360646367 0
  endloop
 endfacet
facet normal 0 0 1
  outer loop
   vertex 0.768364549 0.640012443 0
   vertex 0.761374176 0.648312688 0
   vertex 0.999941111 0.0108520864 0
  endloop
 endfacet
facet normal 0 0 1
  outer loop
   vertex 0.820963383 0.570980847 0
   vertex 0.814718962 0.579855978 0
   vertex 0.999941111 0.0108520864 0
  endloop
 endfacet
facet normal 0 0 1
  outer loop
   vertex 0.754294157 0.656536639 0
   vertex 0.999941111 0.0108520864 0
   vertex 0.761374176 0.648312688 0
  endloop
 endfacet
facet normal 0 0 1
  outer loop
   vertex 0.999941111 0.0108520864 0
   vertex 0.495293707 0.868725598 0
   vertex 0.485837489 0.874049127 0
  endloop
 endfacet
facet normal 0 0 1
  outer loop
   vertex 0.71757859 0.696477592 0
   vertex 0.999941111 0.0108520864 0
   vertex 0.725094199 0.688649714 0
  endloop
 endfacet
facet normal 0 0 1
  outer loop
   vertex -0.00271294359 0.999996305 0
   vertex -0.0135643193 0.99990797 0
   vertex 0.999941111 0.0108520864 0
  endloop
 endfacet
facet normal 0 0 1
  outer loop
   vertex -0.078594327 0.996906698 0
   vertex -0.0894077048 0.995995104 0
   vertex 0.999941111 0.0108520864 0
  endloop
 endfacet
facet normal 0 0 1
  outer loop
   vertex -0.0461037494 0.998936653 0
   vertex -0.0569410734 0.998377562 0
   vertex 0.999941111 0.0108520864 0
  endloop
 endfacet
facet normal 0 0 1
  outer loop
   vertex 0.0515231714 0.99867177 0
   vertex 0.0406829752 0.999172091 0
   vertex 0.999941111 0.0108520864 0
  endloop
 endfacet
facet normal 0 0 1
  outer loop
   vertex 0.296606332 0.954999804 0
   vertex 0.286225617 0.958162248 0
   vertex 0.999941111 0.0108520864 0
  endloop
 endfacet
facet normal 0 0 1
  outer loop
   vertex 0.466754586 0.884386897 0
   vertex 0.457130104 0.889399827 0
   vertex 0.999941111 0.0108520864 0
  endloop
 endfacet
facet normal 0 0 1
  outer loop
   vertex 0.514030039 0.857772171 0
   vertex 0.504691601 0.863299727 0
   vertex 0.999941111 0.0108520864 0
  endloop
 endfacet
facet normal 0 0 1
  outer loop
   vertex 0.947473824 0.319833398 0
   vertex 0.999941111 0.0108520864 0
   vertex 0.950888693 0.30953297 0
  endloop
 endfacet
facet normal 0 0 1
  outer loop
   vertex 0.872727871 0.488206953 0
   vertex 0.867378712 0.497648686 0
   vertex 0.999941111 0.0108520864 0
  endloop
 endfacet
facet normal 0 0 1
  outer loop
   vertex 0.911771357 0.410698235 0
   vertex 0.907260895 0.420568198 0
   vertex 0.999941111 0.0108520864 0
  endloop
 endfacet
facet normal 0 0 1
  outer loop
   vertex 0.96627599 0.257508546 0
   vertex 0.999941111 0.0108520864 0
   vertex 0.969013512 0.247007772 0
  endloop
 endfacet
facet normal 0 0 1
  outer loop
   vertex 0.960460007 0.278417915 0
   vertex 0.957382202 0.288824022 0
   vertex 0.999941111 0.0108520864 0
  endloop
 endfacet
facet normal 0 0 1
  outer loop
   vertex 0.988481581 0.151341274 0
   vertex 0.999941111 0.0108520864 0
   vertex 0.990065634 0.140605778 0
  endloop
 endfacet
facet normal 0 0 1
  outer loop
   vertex 0.99153316 0.129853725 0
   vertex 0.990065634 0.140605778 0
   vertex 0.999941111 0.0108520864 0
  endloop
 endfacet
facet normal 0 0 1
  outer loop
   vertex 0.997116208 0.0758894831 0
   vertex 0.996234 0.0867052972 0
   vertex 0.999941111 0.0108520864 0
  endloop
 endfacet
facet normal 0 0 1
  outer loop
   vertex 0.992883921 0.119086385 0
   vertex 0.999941111 0.0108520864 0
   vertex 0.994117737 0.108305022 0
  endloop
 endfacet
facet normal 0 0 1
  outer loop
   vertex 0.994117737 0.108305022 0
   vertex 0.999941111 0.0108520864 0
   vertex 0.99523443 0.0975108966 0
  endloop
 endfacet
facet normal 0 0 1
  outer loop
   vertex 0.999941111 -0.0108520864 0
   vertex 0.978819251 -0.204726204 0
   vertex 0.980983257 -0.194092408 0
  endloop
 endfacet
facet normal 0 0 1
  outer loop
   vertex 0.999941111 -0.0108520864 0
   vertex 0.98303169 -0.183435768 0
   vertex 0.984964371 -0.172757536 0
  endloop
 endfacet
facet normal 0 0 1
  outer loop
   vertex 0.999941111 -0.0108520864 0
   vertex 0.994117737 -0.108305022 0
   vertex 0.99523443 -0.0975108966 0
  endloop
 endfacet
facet normal 0 0 1
  outer loop
   vertex 0.999941111 -0.0108520864 0
   vertex 0.99523443 -0.0975108966 0
   vertex 0.996234 -0.0867052972 0
  endloop
 endfacet
facet normal 0 0 1
  outer loop
   vertex 0.999941111 -0.0108520864 0
   vertex 0.957382202 -0.288824022 0
   vertex 0.960460007 -0.278417915 0
  endloop
 endfacet
facet normal 0 0 1
  outer loop
   vertex 0.999941111 -0.0108520864 0
   vertex 0.911771357 -0.410698235 0
   vertex 0.916174352 -0.400779903 0
  endloop
 endfacet
facet normal 0 0 1
  outer loop
   vertex 0.999941111 -0.0108520864 0
   vertex 0.936561286 -0.350503832 0
   vertex 0.940309644 -0.340320021 0
  endloop
 endfacet
facet normal 0 0 1
  outer loop
   vertex 0.999941111 -0.0108520864 0
   vertex 0.78878957 -0.614663303 0
   vertex 0.795413196 -0.606067538 0
  endloop
 endfacet
facet normal 0 0 1
  outer loop
   vertex 0.999941111 -0.0108520864 0
   vertex 0.820963383 -0.570980847 0
   vertex 0.827111065 -0.562038481 0
  endloop
 endfacet
facet normal 0 0 1
  outer loop
   vertex 0.999941111 -0.0108520864 0
   vertex 0.850720823 -0.525617838 0
   vertex 0.856374502 -0.516355217 0
  endloop
 endfacet
facet normal 0 0 1
  outer loop
   vertex 0.999941111 -0.0108520864 0
   vertex 0.761374176 -0.648312688 0
   vertex 0.768364549 -0.640012443 0
  endloop
 endfacet
facet normal 0 0 1
  outer loop
   vertex 0.999941111 -0.0108520864 0
   vertex 0.678750932 -0.734368563 0
   vertex 0.686680019 -0.726959765 0
  endloop
 endfacet
facet normal 0 0 1
  outer loop
   vertex 0.999941111 -0.0108520864 0
   vertex 0.71757859 -0.696477592 0
   vertex 0.725094199 -0.688649714 0
  endloop
 endfacet
facet normal 0 0 1
  outer loop
   vertex 0.999941111 -0.0108520864 0
   vertex 0.550767601 -0.834658623 0
   vertex 0.559792519 -0.828632832 0
  endloop
 endfacet
facet normal 0 0 1
  outer loop
   vertex 0.999941111 -0.0108520864 0
   vertex 0.586467564 -0.809972703 0
   vertex 0.595222533 -0.803560913 0
  endloop
 endfacet
facet normal 0 0 1
  outer loop
   vertex 0.999941111 -0.0108520864 0
   vertex 0.595222533 -0.803560913 0
   vertex 0.603907406 -0.79705447 0
  endloop
 endfacet
facet normal 0 0 1
  outer loop
   vertex 0.999941111 -0.0108520864 0
   vertex 0.629531205 -0.776975214 0
   vertex 0.637925565 -0.770098031 0
  endloop
 endfacet
facet normal 0 0 1
  outer loop
   vertex 0.999941111 -0.0108520864 0
   vertex 0.202069968 -0.979371071 0
   vertex 0.212685779 -0.977120638 0
  endloop
 endfacet
facet normal 0 0 1
  outer loop
   vertex 0.999941111 -0.0108520864 0
   vertex -0.0569410734 -0.998377562 0
   vertex -0.0461037494 -0.998936653 0
  endloop
 endfacet
facet normal 0 0 1
  outer loop
   vertex 0.999941111 -0.0108520864 0
   vertex 0.0515231714 -0.99867177 0
   vertex 0.062357299 -0.998053908 0
  endloop
 endfacet
facet normal 0 0 1
  outer loop
   vertex 0.999941111 -0.0108520864 0
   vertex -0.0461037494 -0.998936653 0
   vertex -0.0352610014 -0.999378145 0
  endloop
 endfacet
facet normal 0 0 1
  outer loop
   vertex 0.999941111 -0.0108520864 0
   vertex -0.0352610014 -0.999378145 0
   vertex -0.0244140979 -0.999701917 0
  endloop
 endfacet
facet normal 0 0 1
  outer loop
   vertex 0.999941111 -0.0108520864 0
   vertex 0.0189894885 -0.999819696 0
   vertex 0.0298379883 -0.999554753 0
  endloop
 endfacet
facet normal 0 0 1
  outer loop
   vertex 0.999941111 -0.0108520864 0
   vertex 0.0298379883 -0.999554753 0
   vertex 0.0406829752 -0.999172091 0
  endloop
 endfacet
facet normal 0 0 1
  outer loop
   vertex 0.999941111 -0.0108520864 0
   vertex 0.212685779 -0.977120638 0
   vertex 0.223276556 -0.974755108 0
  endloop
 endfacet
facet normal 0 0 1
  outer loop
   vertex 0.999941111 -0.0108520864 0
   vertex 0.347961694 -0.937508762 0
   vertex 0.35811466 -0.933677614 0
  endloop
 endfacet
facet normal 0 0 1
  outer loop
   vertex 0.999941111 -0.0108520864 0
   vertex 0.368225455 -0.929736555 0
   vertex 0.378292859 -0.925685942 0
  endloop
 endfacet
facet normal 0 0 1
  outer loop
   vertex 0.999941111 -0.0108520864 0
   vertex 0.476324081 -0.879269779 0
   vertex 0.485837489 -0.874049127 0
  endloop
 endfacet
facet normal 0 0 1
  outer loop
   vertex 0.999941111 -0.0108520864 0
   vertex 0.514030039 -0.857772171 0
   vertex 0.52330792 -0.852143645 0
  endloop
 endfacet
facet normal 0 0 1
  outer loop
   vertex 0.999941111 -0.0108520864 0
   vertex 0.398292899 -0.917258263 0
   vertex 0.408223152 -0.912882149 0
  endloop
 endfacet
facet normal 0 0 1
  outer loop
   vertex 0.999941111 -0.0108520864 0
   vertex 0.408223152 -0.912882149 0
   vertex 0.418105304 -0.908398569 0
  endloop
 endfacet
facet normal 0 0 1
  outer loop
   vertex 0.999941111 -0.0108520864 0
   vertex -0.6082232 -0.793766022 0
   vertex -0.599573791 -0.800319493 0
  endloop
 endfacet
facet normal 0 0 1
  outer loop
   vertex 0.999941111 -0.0108520864 0
   vertex -0.599573791 -0.800319493 0
   vertex -0.590853751 -0.806778669 0
  endloop
 endfacet
facet normal 0 0 1
  outer loop
   vertex 0.999941111 -0.0108520864 0
   vertex -0.590853751 -0.806778669 0
   vertex -0.582064152 -0.813142896 0
  endloop
 endfacet
facet normal 0 0 1
  outer loop
   vertex 0.999941111 -0.0108520864 0
   vertex -0.633737683 -0.773548007 0
   vertex -0.625306189 -0.780379534 0
  endloop
 endfacet
facet normal 0 0 1
  outer loop
   vertex 0.999941111 -0.0108520864 0
   vertex -0.650375903 -0.75961256 0
   vertex -0.642094612 -0.766625404 0
  endloop
 endfacet
facet normal 0 0 1
  outer loop
   vertex 0.999941111 -0.0108520864 0
   vertex -0.642094612 -0.766625404 0
   vertex -0.633737683 -0.773548007 0
  endloop
 endfacet
facet normal 0 0 1
  outer loop
   vertex 0.999941111 -0.0108520864 0
   vertex -0.698421776 -0.71568644 0
   vertex -0.690614283 -0.723223269 0
  endloop
 endfacet
facet normal 0 0 1
  outer loop
   vertex 0.999941111 -0.0108520864 0
   vertex -0.713788986 -0.700360775 0
   vertex -0.706146955 -0.708065271 0
  endloop
 endfacet
facet normal 0 0 1
  outer loop
   vertex 0.999941111 -0.0108520864 0
   vertex -0.706146955 -0.708065271 0
   vertex -0.698421776 -0.71568644 0
  endloop
 endfacet
facet normal 0 0 1
  outer loop
   vertex 0.999941111 -0.0108520864 0
   vertex -0.690614283 -0.723223269 0
   vertex -0.682725549 -0.730674922 0
  endloop
 endfacet
facet normal 0 0 1
  outer loop
   vertex 0.999941111 -0.0108520864 0
   vertex -0.674756348 -0.738040566 0
   vertex -0.666707754 -0.745319247 0
  endloop
 endfacet
facet normal 0 0 1
  outer loop
   vertex 0.999941111 -0.0108520864 0
   vertex -0.666707754 -0.745319247 0
   vertex -0.658580601 -0.75251019 0
  endloop
 endfacet
facet normal 0 0 1
  outer loop
   vertex 0.999941111 -0.0108520864 0
   vertex -0.658580601 -0.75251019 0
   vertex -0.650375903 -0.75961256 0
  endloop
 endfacet
facet normal 0 0 1
  outer loop
   vertex 0.999941111 -0.0108520864 0
   vertex -0.555288255 -0.831657946 0
   vertex -0.546230733 -0.837634742 0
  endloop
 endfacet
facet normal 0 0 1
  outer loop
   vertex 0.999941111 -0.0108520864 0
   vertex -0.582064152 -0.813142896 0
   vertex -0.573206007 -0.819411278 0
  endloop
 endfacet
facet normal 0 0 1
  outer loop
   vertex 0.999941111 -0.0108520864 0
   vertex -0.573206007 -0.819411278 0
   vertex -0.564280331 -0.82558322 0
  endloop
 endfacet
facet normal 0 0 1
  outer loop
   vertex 0.999941111 -0.0108520864 0
   vertex -0.546230733 -0.837634742 0
   vertex -0.537108898 -0.843512893 0
  endloop
 endfacet
facet normal 0 0 1
  outer loop
   vertex 0.999941111 -0.0108520864 0
   vertex -0.527923882 -0.849291682 0
   vertex -0.518676639 -0.854970515 0
  endloop
 endfacet
facet normal 0 0 1
  outer loop
   vertex 0.999941111 -0.0108520864 0
   vertex -0.5093683 -0.860548615 0
   vertex -0.5 -0.866025388 0
  endloop
 endfacet
facet normal 0 0 1
  outer loop
   vertex 0.999941111 -0.0108520864 0
   vertex -0.5 -0.866025388 0
   vertex -0.49057281 -0.871400177 0
  endloop
 endfacet
facet normal 0 0 1
  outer loop
   vertex 0.999941111 -0.0108520864 0
   vertex -0.423028022 -0.906116605 0
   vertex -0.413170308 -0.91065377 0
  endloop
 endfacet
facet normal 0 0 1
  outer loop
   vertex 0.999941111 -0.0108520864 0
   vertex -0.49057281 -0.871400177 0
   vertex -0.481087863 -0.876672387 0
  endloop
 endfacet
facet normal 0 0 1
  outer loop
   vertex 0.999941111 -0.0108520864 0
   vertex -0.4425928 -0.896722674 0
   vertex -0.432835907 -0.901472747 0
  endloop
 endfacet
facet normal 0 0 1
  outer loop
   vertex 0.999941111 -0.0108520864 0
   vertex -0.413170308 -0.91065377 0
   vertex -0.403263956 -0.915083706 0
  endloop
 endfacet
facet normal 0 0 1
  outer loop
   vertex 0.999941111 -0.0108520864 0
   vertex -0.3933101 -0.919405878 0
   vertex -0.38330996 -0.923619747 0
  endloop
 endfacet
facet normal 0 0 1
  outer loop
   vertex 0.999941111 -0.0108520864 0
   vertex -0.38330996 -0.923619747 0
   vertex -0.373264641 -0.927724898 0
  endloop
 endfacet
facet normal 0 0 1
  outer loop
   vertex 0.999941111 -0.0108520864 0
   vertex -0.363175392 -0.931720793 0
   vertex -0.353043377 -0.935606956 0
  endloop
 endfacet
facet normal 0 0 1
  outer loop
   vertex 0.999941111 -0.0108520864 0
   vertex -0.132543221 -0.991177201 0
   vertex -0.121779583 -0.992557168 0
  endloop
 endfacet
facet normal 0 0 1
  outer loop
   vertex 0.999941111 -0.0108520864 0
   vertex -0.154022411 -0.988067329 0
   vertex -0.14329125 -0.989680588 0
  endloop
 endfacet
facet normal 0 0 1
  outer loop
   vertex 0.999941111 -0.0108520864 0
   vertex -0.14329125 -0.989680588 0
   vertex -0.132543221 -0.991177201 0
  endloop
 endfacet
facet normal 0 0 1
  outer loop
   vertex 0.999941111 -0.0108520864 0
   vertex -0.121779583 -0.992557168 0
   vertex -0.111001603 -0.99382025 0
  endloop
 endfacet
facet normal 0 0 1
  outer loop
   vertex 0.999941111 -0.0108520864 0
   vertex -0.111001603 -0.99382025 0
   vertex -0.100210555 -0.994966269 0
  endloop
 endfacet
facet normal 0 0 1
  outer loop
   vertex 0.999941111 -0.0108520864 0
   vertex -0.100210555 -0.994966269 0
   vertex -0.0894077048 -0.995995104 0
  endloop
 endfacet
facet normal 0 0 1
  outer loop
   vertex 0.999941111 -0.0108520864 0
   vertex -0.0135643193 -0.99990797 0
   vertex -0.00271294359 -0.999996305 0
  endloop
 endfacet
facet normal 0 0 1
  outer loop
   vertex 0.999941111 -0.0108520864 0
   vertex -0.00271294359 -0.999996305 0
   vertex 0.00813875161 -0.99996686 0
  endloop
 endfacet
facet normal 0 0 1
  outer loop
   vertex 0.999941111 -0.0108520864 0
   vertex 0.00813875161 -0.99996686 0
   vertex 0.0189894885 -0.999819696 0
  endloop
 endfacet
facet normal 0 0 1
  outer loop
   vertex 0.999941111 -0.0108520864 0
   vertex -0.0677716881 -0.99770087 0
   vertex -0.0569410734 -0.998377562 0
  endloop
 endfacet
facet normal 0 0 1
  outer loop
   vertex 0.999941111 -0.0108520864 0
   vertex -0.0244140979 -0.999701917 0
   vertex -0.0135643193 -0.99990797 0
  endloop
 endfacet
facet normal 0 0 1
  outer loop
   vertex 0.999941111 -0.0108520864 0
   vertex -0.0894077048 -0.995995104 0
   vertex -0.078594327 -0.996906698 0
  endloop
 endfacet
facet normal 0 0 1
  outer loop
   vertex 0.999941111 -0.0108520864 0
   vertex -0.078594327 -0.996906698 0
   vertex -0.0677716881 -0.99770087 0
  endloop
 endfacet
facet normal 0 0 1
  outer loop
   vertex 0.999941111 -0.0108520864 0
   vertex -0.196753055 -0.980453074 0
   vertex -0.186102003 -0.982530415 0
  endloop
 endfacet
facet normal 0 0 1
  outer loop
   vertex 0.999941111 -0.0108520864 0
   vertex -0.175429046 -0.984492064 0
   vertex -0.164735422 -0.986337781 0
  endloop
 endfacet
facet normal 0 0 1
  outer loop
   vertex 0.999941111 -0.0108520864 0
   vertex -0.164735422 -0.986337781 0
   vertex -0.154022411 -0.988067329 0
  endloop
 endfacet
facet normal 0 0 1
  outer loop
   vertex 0.999941111 -0.0108520864 0
   vertex -0.249635741 -0.968339801 0
   vertex -0.239113033 -0.970991731 0
  endloop
 endfacet
facet normal 0 0 1
  outer loop
   vertex 0.999941111 -0.0108520864 0
   vertex -0.239113033 -0.970991731 0
   vertex -0.228562161 -0.973529339 0
  endloop
 endfacet
facet normal 0 0 1
  outer loop
   vertex 0.999941111 -0.0108520864 0
   vertex -0.270591736 -0.962694168 0
   vertex -0.260129064 -0.965573847 0
  endloop
 endfacet
facet normal 0 0 1
  outer loop
   vertex 0.999941111 -0.0108520864 0
   vertex -0.260129064 -0.965573847 0
   vertex -0.249635741 -0.968339801 0
  endloop
 endfacet
facet normal 0 0 1
  outer loop
   vertex 0.999941111 -0.0108520864 0
   vertex -0.312111557 -0.950045466 0
   vertex -0.301783681 -0.953376412 0
  endloop
 endfacet
facet normal 0 0 1
  outer loop
   vertex 0.999941111 -0.0108520864 0
   vertex -0.301783681 -0.953376412 0
   vertex -0.291420281 -0.956595123 0
  endloop
 endfacet
facet normal 0 0 1
  outer loop
   vertex 0.999941111 -0.0108520864 0
   vertex -0.291420281 -0.956595123 0
   vertex -0.281022549 -0.95970118 0
  endloop
 endfacet
facet normal 0 0 1
  outer loop
   vertex 0.999941111 -0.0108520864 0
   vertex -0.332655817 -0.943048298 0
   vertex -0.322402656 -0.946602643 0
  endloop
 endfacet
facet normal 0 0 1
  outer loop
   vertex 0.999941111 -0.0108520864 0
   vertex -0.322402656 -0.946602643 0
   vertex -0.312111557 -0.950045466 0
  endloop
 endfacet
facet normal 0 0 1
  outer loop
   vertex 0.999941111 -0.0108520864 0
   vertex -0.353043377 -0.935606956 0
   vertex -0.342869788 -0.93938297 0
  endloop
 endfacet
facet normal 0 0 1
  outer loop
   vertex 0.999941111 -0.0108520864 0
   vertex -0.342869788 -0.93938297 0
   vertex -0.332655817 -0.943048298 0
  endloop
 endfacet
facet normal 0 0 1
  outer loop
   vertex -0.81156075 -0.584268034 0
   vertex 0.999941111 -0.0108520864 0
   vertex -0.817853212 -0.575426877 0
  endloop
 endfacet
facet normal 0 0 1
  outer loop
   vertex -0.830148458 -0.557542443 0
   vertex 0.999941111 -0.0108520864 0
   vertex -0.836149752 -0.548501194 0
  endloop
 endfacet
facet normal 0 0 1
  outer loop
   vertex -0.824049354 -0.566518009 0
   vertex 0.999941111 -0.0108520864 0
   vertex -0.830148458 -0.557542443 0
  endloop
 endfacet
facet normal 0 0 1
  outer loop
   vertex -0.805172741 -0.593040347 0
   vertex 0.999941111 -0.0108520864 0
   vertex -0.81156075 -0.584268034 0
  endloop
 endfacet
facet normal 0 0 1
  outer loop
   vertex -0.785442889 -0.618934155 0
   vertex 0.999941111 -0.0108520864 0
   vertex -0.792113066 -0.610374391 0
  endloop
 endfacet
facet normal 0 0 1
  outer loop
   vertex -0.778680205 -0.627421021 0
   vertex 0.999941111 -0.0108520864 0
   vertex -0.785442889 -0.618934155 0
  endloop
 endfacet
facet normal 0 0 1
  outer loop
   vertex 0.999941111 -0.0108520864 0
   vertex -0.736207247 -0.676756144 0
   vertex -0.728820026 -0.684705317 0
  endloop
 endfacet
facet normal 0 0 1
  outer loop
   vertex 0.999941111 -0.0108520864 0
   vertex -0.728820026 -0.684705317 0
   vertex -0.721346974 -0.692573845 0
  endloop
 endfacet
facet normal 0 0 1
  outer loop
   vertex 0.999941111 -0.0108520864 0
   vertex -0.721346974 -0.692573845 0
   vertex -0.713788986 -0.700360775 0
  endloop
 endfacet
facet normal 0 0 1
  outer loop
   vertex 0.999941111 -0.0108520864 0
   vertex -0.750720739 -0.660619676 0
   vertex -0.743507802 -0.668727279 0
  endloop
 endfacet
facet normal 0 0 1
  outer loop
   vertex 0.999941111 -0.0108520864 0
   vertex -0.743507802 -0.668727279 0
   vertex -0.736207247 -0.676756144 0
  endloop
 endfacet
facet normal 0 0 1
  outer loop
   vertex -0.77182585 -0.635833979 0
   vertex 0.999941111 -0.0108520864 0
   vertex -0.778680205 -0.627421021 0
  endloop
 endfacet
facet normal 0 0 1
  outer loop
   vertex 0.999941111 -0.0108520864 0
   vertex -0.757845283 -0.652434289 0
   vertex -0.750720739 -0.660619676 0
  endloop
 endfacet
facet normal 0 0 1
  outer loop
   vertex -0.847856343 -0.530225992 0
   vertex 0.999941111 -0.0108520864 0
   vertex -0.853560209 -0.520994186 0
  endloop
 endfacet
facet normal 0 0 1
  outer loop
   vertex -0.842052639 -0.539395332 0
   vertex 0.999941111 -0.0108520864 0
   vertex -0.847856343 -0.530225992 0
  endloop
 endfacet
facet normal 0 0 1
  outer loop
   vertex -0.836149752 -0.548501194 0
   vertex 0.999941111 -0.0108520864 0
   vertex -0.842052639 -0.539395332 0
  endloop
 endfacet
facet normal 0 0 1
  outer loop
   vertex -0.864665747 -0.502347648 0
   vertex 0.999941111 -0.0108520864 0
   vertex -0.870066106 -0.492935061 0
  endloop
 endfacet
facet normal 0 0 1
  outer loop
   vertex -0.859163582 -0.511701047 0
   vertex 0.999941111 -0.0108520864 0
   vertex -0.864665747 -0.502347648 0
  endloop
 endfacet
facet normal 0 0 1
  outer loop
   vertex -0.875364006 -0.48346445 0
   vertex 0.999941111 -0.0108520864 0
   vertex -0.880558789 -0.473936915 0
  endloop
 endfacet
facet normal 0 0 1
  outer loop
   vertex -0.870066106 -0.492935061 0
   vertex 0.999941111 -0.0108520864 0
   vertex -0.875364006 -0.48346445 0
  endloop
 endfacet
facet normal 0 0 1
  outer loop
   vertex -0.895518661 -0.445023954 0
   vertex 0.999941111 -0.0108520864 0
   vertex -0.900295138 -0.435279936 0
  endloop
 endfacet
facet normal 0 0 1
  outer loop
   vertex -0.890636742 -0.45471552 0
   vertex 0.999941111 -0.0108520864 0
   vertex -0.895518661 -0.445023954 0
  endloop
 endfacet
facet normal 0 0 1
  outer loop
   vertex -0.880558789 -0.473936915 0
   vertex 0.999941111 -0.0108520864 0
   vertex -0.88564992 -0.464353561 0
  endloop
 endfacet
facet normal 0 0 1
  outer loop
   vertex -0.904965639 -0.425484687 0
   vertex 0.999941111 -0.0108520864 0
   vertex -0.909529507 -0.415639341 0
  endloop
 endfacet
facet normal 0 0 1
  outer loop
   vertex -0.900295138 -0.435279936 0
   vertex 0.999941111 -0.0108520864 0
   vertex -0.904965639 -0.425484687 0
  endloop
 endfacet
facet normal 0 0 1
  outer loop
   vertex -0.913986325 -0.405745029 0
   vertex 0.999941111 -0.0108520864 0
   vertex -0.918335438 -0.395802975 0
  endloop
 endfacet
facet normal 0 0 1
  outer loop
   vertex -0.909529507 -0.415639341 0
   vertex 0.999941111 -0.0108520864 0
   vertex -0.913986325 -0.405745029 0
  endloop
 endfacet
facet normal 0 0 1
  outer loop
   vertex -0.964864612 -0.262747645 0
   vertex 0.999941111 -0.0108520864 0
   vertex -0.967658997 -0.252261877 0
  endloop
 endfacet
facet normal 0 0 1
  outer loop
   vertex -0.977694035 -0.210034132 0
   vertex -0.975357294 -0.220631287 0
   vertex 0.999941111 -0.0108520864 0
  endloop
 endfacet
facet normal 0 0 1
  outer loop
   vertex -0.972905636 -0.231202453 0
   vertex -0.970339477 -0.241746396 0
   vertex 0.999941111 -0.0108520864 0
  endloop
 endfacet
facet normal 0 0 1
  outer loop
   vertex -0.961956561 -0.273202479 0
   vertex 0.999941111 -0.0108520864 0
   vertex -0.964864612 -0.262747645 0
  endloop
 endfacet
facet normal 0 0 1
  outer loop
   vertex -0.958935261 -0.283625126 0
   vertex 0.999941111 -0.0108520864 0
   vertex -0.961956561 -0.273202479 0
  endloop
 endfacet
facet normal 0 0 1
  outer loop
   vertex -0.95580101 -0.294014394 0
   vertex 0.999941111 -0.0108520864 0
   vertex -0.958935261 -0.283625126 0
  endloop
 endfacet
facet normal 0 0 1
  outer loop
   vertex -0.926708817 -0.375780135 0
   vertex 0.999941111 -0.0108520864 0
   vertex -0.930732071 -0.365701765 0
  endloop
 endfacet
facet normal 0 0 1
  outer loop
   vertex -0.922576487 -0.385814279 0
   vertex 0.999941111 -0.0108520864 0
   vertex -0.926708817 -0.375780135 0
  endloop
 endfacet
facet normal 0 0 1
  outer loop
   vertex -0.918335438 -0.395802975 0
   vertex 0.999941111 -0.0108520864 0
   vertex -0.922576487 -0.385814279 0
  endloop
 endfacet
facet normal 0 0 1
  outer loop
   vertex -0.938449323 -0.345417023 0
   vertex 0.999941111 -0.0108520864 0
   vertex -0.942142367 -0.335213035 0
  endloop
 endfacet
facet normal 0 0 1
  outer loop
   vertex -0.934645712 -0.35558033 0
   vertex 0.999941111 -0.0108520864 0
   vertex -0.938449323 -0.345417023 0
  endloop
 endfacet
facet normal 0 0 1
  outer loop
   vertex -0.949195206 -0.314687818 0
   vertex 0.999941111 -0.0108520864 0
   vertex -0.952554166 -0.304369032 0
  endloop
 endfacet
facet normal 0 0 1
  outer loop
   vertex -0.942142367 -0.335213035 0
   vertex 0.999941111 -0.0108520864 0
   vertex -0.945724487 -0.32496956 0
  endloop
 endfacet
facet normal 0 0 1
  outer loop
   vertex -0.989288151 -0.145975679 0
   vertex -0.987645864 -0.156702414 0
   vertex 0.999941111 -0.0108520864 0
  endloop
 endfacet
facet normal 0 0 1
  outer loop
   vertex -0.994690716 -0.102909476 0
   vertex -0.993515432 -0.113697372 0
   vertex 0.999941111 -0.0108520864 0
  endloop
 endfacet
facet normal 0 0 1
  outer loop
   vertex -0.995748878 -0.0921094567 0
   vertex -0.994690716 -0.102909476 0
   vertex 0.999941111 -0.0108520864 0
  endloop
 endfacet
facet normal 0 0 1
  outer loop
   vertex -0.993515432 -0.113697372 0
   vertex -0.992223144 -0.124471888 0
   vertex 0.999941111 -0.0108520864 0
  endloop
 endfacet
facet normal 0 0 1
  outer loop
   vertex -0.999632001 -0.0271261428 0
   vertex -0.999278784 -0.0379721262 0
   vertex 0.999941111 -0.0108520864 0
  endloop
 endfacet
facet normal 0 0 1
  outer loop
   vertex -0.999867499 -0.0162769631 0
   vertex -0.999632001 -0.0271261428 0
   vertex 0.999941111 -0.0108520864 0
  endloop
 endfacet
facet normal 0 0 1
  outer loop
   vertex -0.999278784 -0.0379721262 0
   vertex -0.998807907 -0.0488136411 0
   vertex 0.999941111 -0.0108520864 0
  endloop
 endfacet
facet normal 0 0 1
  outer loop
   vertex 0.999941111 0.0108520864 0
   vertex -0.998219371 0.0596494041 0
   vertex -0.998807907 0.0488136411 0
  endloop
 endfacet
facet normal 0 0 1
  outer loop
   vertex 0.999941111 0.0108520864 0
   vertex -0.995748878 0.0921094567 0
   vertex -0.996689796 0.0812985897 0
  endloop
 endfacet
facet normal 0 0 1
  outer loop
   vertex 0.999941111 0.0108520864 0
   vertex -0.994690716 0.102909476 0
   vertex -0.995748878 0.0921094567 0
  endloop
 endfacet
facet normal 0 0 1
  outer loop
   vertex 0.999941111 0.0108520864 0
   vertex -0.997513294 0.0704781488 0
   vertex -0.998219371 0.0596494041 0
  endloop
 endfacet
facet normal 0 0 1
  outer loop
   vertex 0.999941111 0.0108520864 0
   vertex -0.996689796 0.0812985897 0
   vertex -0.997513294 0.0704781488 0
  endloop
 endfacet
facet normal 0 0 1
  outer loop
   vertex 0.999941111 0.0108520864 0
   vertex -0.993515432 0.113697372 0
   vertex -0.994690716 0.102909476 0
  endloop
 endfacet
facet normal 0 0 1
  outer loop
   vertex -0.992223144 0.124471888 0
   vertex 0.999941111 0.0108520864 0
   vertex -0.990813971 0.135231748 0
  endloop
 endfacet
facet normal 0 0 1
  outer loop
   vertex -0.982021928 0.188766867 0
   vertex 0.999941111 0.0108520864 0
   vertex -0.979915679 0.199412242 0
  endloop
 endfacet
facet normal 0 0 1
  outer loop
   vertex -0.979915679 0.199412242 0
   vertex 0.999941111 0.0108520864 0
   vertex -0.977694035 0.210034132 0
  endloop
 endfacet
facet normal 0 0 1
  outer loop
   vertex -0.990813971 0.135231748 0
   vertex 0.999941111 0.0108520864 0
   vertex -0.989288151 0.145975679 0
  endloop
 endfacet
facet normal 0 0 1
  outer loop
   vertex -0.987645864 0.156702414 0
   vertex 0.999941111 0.0108520864 0
   vertex -0.985887229 0.167410702 0
  endloop
 endfacet
facet normal 0 0 1
  outer loop
   vertex -0.95580101 0.294014394 0
   vertex 0.999941111 0.0108520864 0
   vertex -0.952554166 0.304369032 0
  endloop
 endfacet
facet normal 0 0 1
  outer loop
   vertex -0.952554166 0.304369032 0
   vertex 0.999941111 0.0108520864 0
   vertex -0.949195206 0.314687818 0
  endloop
 endfacet
facet normal 0 0 1
  outer loop
   vertex -0.949195206 0.314687818 0
   vertex 0.999941111 0.0108520864 0
   vertex -0.945724487 0.32496956 0
  endloop
 endfacet
facet normal 0 0 1
  outer loop
   vertex -0.938449323 0.345417023 0
   vertex 0.999941111 0.0108520864 0
   vertex -0.934645712 0.35558033 0
  endloop
 endfacet
facet normal 0 0 1
  outer loop
   vertex -0.934645712 0.35558033 0
   vertex 0.999941111 0.0108520864 0
   vertex -0.930732071 0.365701765 0
  endloop
 endfacet
facet normal 0 0 1
  outer loop
   vertex -0.945724487 0.32496956 0
   vertex 0.999941111 0.0108520864 0
   vertex -0.942142367 0.335213035 0
  endloop
 endfacet
facet normal 0 0 1
  outer loop
   vertex -0.942142367 0.335213035 0
   vertex 0.999941111 0.0108520864 0
   vertex -0.938449323 0.345417023 0
  endloop
 endfacet
facet normal 0 0 1
  outer loop
   vertex -0.958935261 0.283625126 0
   vertex 0.999941111 0.0108520864 0
   vertex -0.95580101 0.294014394 0
  endloop
 endfacet
facet normal 0 0 1
  outer loop
   vertex -0.964864612 0.262747645 0
   vertex 0.999941111 0.0108520864 0
   vertex -0.961956561 0.273202479 0
  endloop
 endfacet
facet normal 0 0 1
  outer loop
   vertex -0.961956561 0.273202479 0
   vertex 0.999941111 0.0108520864 0
   vertex -0.958935261 0.283625126 0
  endloop
 endfacet
facet normal 0 0 1
  outer loop
   vertex -0.977694035 0.210034132 0
   vertex 0.999941111 0.0108520864 0
   vertex -0.975357294 0.220631287 0
  endloop
 endfacet
facet normal 0 0 1
  outer loop
   vertex -0.975357294 0.220631287 0
   vertex 0.999941111 0.0108520864 0
   vertex -0.972905636 0.231202453 0
  endloop
 endfacet
facet normal 0 0 1
  outer loop
   vertex -0.972905636 0.231202453 0
   vertex 0.999941111 0.0108520864 0
   vertex -0.970339477 0.241746396 0
  endloop
 endfacet
facet normal 0 0 1
  outer loop
   vertex -0.967658997 0.252261877 0
   vertex 0.999941111 0.0108520864 0
   vertex -0.964864612 0.262747645 0
  endloop
 endfacet
facet normal 0 0 1
  outer loop
   vertex -0.926708817 0.375780135 0
   vertex 0.999941111 0.0108520864 0
   vertex -0.922576487 0.385814279 0
  endloop
 endfacet
facet normal 0 0 1
  outer loop
   vertex -0.913986325 0.405745029 0
   vertex 0.999941111 0.0108520864 0
   vertex -0.909529507 0.415639341 0
  endloop
 endfacet
facet normal 0 0 1
  outer loop
   vertex -0.904965639 0.425484687 0
   vertex 0.999941111 0.0108520864 0
   vertex -0.900295138 0.435279936 0
  endloop
 endfacet
facet normal 0 0 1
  outer loop
   vertex -0.890636742 0.45471552 0
   vertex 0.999941111 0.0108520864 0
   vertex -0.88564992 0.464353561 0
  endloop
 endfacet
facet normal 0 0 1
  outer loop
   vertex -0.900295138 0.435279936 0
   vertex 0.999941111 0.0108520864 0
   vertex -0.895518661 0.445023954 0
  endloop
 endfacet
facet normal 0 0 1
  outer loop
   vertex -0.895518661 0.445023954 0
   vertex 0.999941111 0.0108520864 0
   vertex -0.890636742 0.45471552 0
  endloop
 endfacet
facet normal 0 0 1
  outer loop
   vertex -0.880558789 0.473936915 0
   vertex 0.999941111 0.0108520864 0
   vertex -0.875364006 0.48346445 0
  endloop
 endfacet
facet normal 0 0 1
  outer loop
   vertex -0.875364006 0.48346445 0
   vertex 0.999941111 0.0108520864 0
   vertex -0.870066106 0.492935061 0
  endloop
 endfacet
facet normal 0 0 1
  outer loop
   vertex -0.870066106 0.492935061 0
   vertex 0.999941111 0.0108520864 0
   vertex -0.864665747 0.502347648 0
  endloop
 endfacet
facet normal 0 0 1
  outer loop
   vertex -0.853560209 0.520994186 0
   vertex 0.999941111 0.0108520864 0
   vertex -0.847856343 0.530225992 0
  endloop
 endfacet
facet normal 0 0 1
  outer loop
   vertex -0.847856343 0.530225992 0
   vertex 0.999941111 0.0108520864 0
   vertex -0.842052639 0.539395332 0
  endloop
 endfacet
facet normal 0 0 1
  outer loop
   vertex -0.864665747 0.502347648 0
   vertex 0.999941111 0.0108520864 0
   vertex -0.859163582 0.511701047 0
  endloop
 endfacet
facet normal 0 0 1
  outer loop
   vertex -0.859163582 0.511701047 0
   vertex 0.999941111 0.0108520864 0
   vertex -0.853560209 0.520994186 0
  endloop
 endfacet
facet normal 0 0 1
  outer loop
   vertex -0.792113066 0.610374391 0
   vertex 0.999941111 0.0108520864 0
   vertex -0.785442889 0.618934155 0
  endloop
 endfacet
facet normal 0 0 1
  outer loop
   vertex -0.785442889 0.618934155 0
   vertex 0.999941111 0.0108520864 0
   vertex -0.778680205 0.627421021 0
  endloop
 endfacet
facet normal 0 0 1
  outer loop
   vertex -0.77182585 0.635833979 0
   vertex 0.999941111 0.0108520864 0
   vertex -0.764880598 0.644172072 0
  endloop
 endfacet
facet normal 0 0 1
  outer loop
   vertex -0.743507802 0.668727279 0
   vertex 0.999941111 0.0108520864 0
   vertex -0.736207247 0.676756144 0
  endloop
 endfacet
facet normal 0 0 1
  outer loop
   vertex -0.736207247 0.676756144 0
   vertex 0.999941111 0.0108520864 0
   vertex -0.728820026 0.684705317 0
  endloop
 endfacet
facet normal 0 0 1
  outer loop
   vertex -0.764880598 0.644172072 0
   vertex 0.999941111 0.0108520864 0
   vertex -0.757845283 0.652434289 0
  endloop
 endfacet
facet normal 0 0 1
  outer loop
   vertex -0.750720739 0.660619676 0
   vertex 0.999941111 0.0108520864 0
   vertex -0.743507802 0.668727279 0
  endloop
 endfacet
facet normal 0 0 1
  outer loop
   vertex -0.798689902 0.601742804 0
   vertex 0.999941111 0.0108520864 0
   vertex -0.792113066 0.610374391 0
  endloop
 endfacet
facet normal 0 0 1
  outer loop
   vertex -0.817853212 0.575426877 0
   vertex 0.999941111 0.0108520864 0
   vertex -0.81156075 0.584268034 0
  endloop
 endfacet
facet normal 0 0 1
  outer loop
   vertex -0.81156075 0.584268034 0
   vertex 0.999941111 0.0108520864 0
   vertex -0.805172741 0.593040347 0
  endloop
 endfacet
facet normal 0 0 1
  outer loop
   vertex -0.842052639 0.539395332 0
   vertex 0.999941111 0.0108520864 0
   vertex -0.836149752 0.548501194 0
  endloop
 endfacet
facet normal 0 0 1
  outer loop
   vertex -0.836149752 0.548501194 0
   vertex 0.999941111 0.0108520864 0
   vertex -0.830148458 0.557542443 0
  endloop
 endfacet
facet normal 0 0 1
  outer loop
   vertex -0.830148458 0.557542443 0
   vertex 0.999941111 0.0108520864 0
   vertex -0.824049354 0.566518009 0
  endloop
 endfacet
facet normal 0 0 1
  outer loop
   vertex -0.824049354 0.566518009 0
   vertex 0.999941111 0.0108520864 0
   vertex -0.817853212 0.575426877 0
  endloop
 endfacet
facet normal 0 0 1
  outer loop
   vertex -0.432835907 0.901472747 0
   vertex 0.999941111 0.0108520864 0
   vertex -0.423028022 0.906116605 0
  endloop
 endfacet
facet normal 0 0 1
  outer loop
   vertex -0.423028022 0.906116605 0
   vertex 0.999941111 0.0108520864 0
   vertex -0.413170308 0.91065377 0
  endloop
 endfacet
facet normal 0 0 1
  outer loop
   vertex -0.413170308 0.91065377 0
   vertex 0.999941111 0.0108520864 0
   vertex -0.403263956 0.915083706 0
  endloop
 endfacet
facet normal 0 0 1
  outer loop
   vertex -0.363175392 0.931720793 0
   vertex 0.999941111 0.0108520864 0
   vertex -0.353043377 0.935606956 0
  endloop
 endfacet
facet normal 0 0 1
  outer loop
   vertex -0.403263956 0.915083706 0
   vertex 0.999941111 0.0108520864 0
   vertex -0.3933101 0.919405878 0
  endloop
 endfacet
facet normal 0 0 1
  outer loop
   vertex -0.3933101 0.919405878 0
   vertex 0.999941111 0.0108520864 0
   vertex -0.38330996 0.923619747 0
  endloop
 endfacet
facet normal 0 0 1
  outer loop
   vertex -0.332655817 0.943048298 0
   vertex 0.999941111 0.0108520864 0
   vertex -0.322402656 0.946602643 0
  endloop
 endfacet
facet normal 0 0 1
  outer loop
   vertex -0.322402656 0.946602643 0
   vertex 0.999941111 0.0108520864 0
   vertex -0.312111557 0.950045466 0
  endloop
 endfacet
facet normal 0 0 1
  outer loop
   vertex -0.312111557 0.950045466 0
   vertex 0.999941111 0.0108520864 0
   vertex -0.301783681 0.953376412 0
  endloop
 endfacet
facet normal 0 0 1
  outer loop
   vertex -0.260129064 0.965573847 0
   vertex 0.999941111 0.0108520864 0
   vertex -0.249635741 0.968339801 0
  endloop
 endfacet
facet normal 0 0 1
  outer loop
   vertex -0.249635741 0.968339801 0
   vertex 0.999941111 0.0108520864 0
   vertex -0.239113033 0.970991731 0
  endloop
 endfacet
facet normal 0 0 1
  outer loop
   vertex -0.291420281 0.956595123 0
   vertex 0.999941111 0.0108520864 0
   vertex -0.281022549 0.95970118 0
  endloop
 endfacet
facet normal 0 0 1
  outer loop
   vertex -0.281022549 0.95970118 0
   vertex 0.999941111 0.0108520864 0
   vertex -0.270591736 0.962694168 0
  endloop
 endfacet
facet normal 0 0 1
  outer loop
   vertex -0.111001603 0.99382025 0
   vertex 0.999941111 0.0108520864 0
   vertex -0.100210555 0.994966269 0
  endloop
 endfacet
facet normal 0 0 1
  outer loop
   vertex -0.100210555 0.994966269 0
   vertex 0.999941111 0.0108520864 0
   vertex -0.0894077048 0.995995104 0
  endloop
 endfacet
facet normal 0 0 1
  outer loop
   vertex -0.078594327 0.996906698 0
   vertex 0.999941111 0.0108520864 0
   vertex -0.0677716881 0.99770087 0
  endloop
 endfacet
facet normal 0 0 1
  outer loop
   vertex -0.0352610014 0.999378145 0
   vertex 0.999941111 0.0108520864 0
   vertex -0.0244140979 0.999701917 0
  endloop
 endfacet
facet normal 0 0 1
  outer loop
   vertex -0.0244140979 0.999701917 0
   vertex 0.999941111 0.0108520864 0
   vertex -0.0135643193 0.99990797 0
  endloop
 endfacet
facet normal 0 0 1
  outer loop
   vertex -0.0677716881 0.99770087 0
   vertex 0.999941111 0.0108520864 0
   vertex -0.0569410734 0.998377562 0
  endloop
 endfacet
facet normal 0 0 1
  outer loop
   vertex -0.0461037494 0.998936653 0
   vertex 0.999941111 0.0108520864 0
   vertex -0.0352610014 0.999378145 0
  endloop
 endfacet
facet normal 0 0 1
  outer loop
   vertex -0.121779583 0.992557168 0
   vertex 0.999941111 0.0108520864 0
   vertex -0.111001603 0.99382025 0
  endloop
 endfacet
facet normal 0 0 1
  outer loop
   vertex -0.164735422 0.986337781 0
   vertex 0.999941111 0.0108520864 0
   vertex -0.154022411 0.988067329 0
  endloop
 endfacet
facet normal 0 0 1
  outer loop
   vertex -0.132543221 0.991177201 0
   vertex 0.999941111 0.0108520864 0
   vertex -0.121779583 0.992557168 0
  endloop
 endfacet
facet normal 0 0 1
  outer loop
   vertex -0.239113033 0.970991731 0
   vertex 0.999941111 0.0108520864 0
   vertex -0.228562161 0.973529339 0
  endloop
 endfacet
facet normal 0 0 1
  outer loop
   vertex -0.228562161 0.973529339 0
   vertex 0.999941111 0.0108520864 0
   vertex -0.217984378 0.975952268 0
  endloop
 endfacet
facet normal 0 0 1
  outer loop
   vertex -0.196753055 0.980453074 0
   vertex 0.999941111 0.0108520864 0
   vertex -0.186102003 0.982530415 0
  endloop
 endfacet
facet normal 0 0 1
  outer loop
   vertex -0.175429046 0.984492064 0
   vertex 0.999941111 0.0108520864 0
   vertex -0.164735422 0.986337781 0
  endloop
 endfacet
facet normal 0 0 1
  outer loop
   vertex -0.4425928 0.896722674 0
   vertex 0.999941111 0.0108520864 0
   vertex -0.432835907 0.901472747 0
  endloop
 endfacet
facet normal 0 0 1
  outer loop
   vertex -0.471546263 0.881841302 0
   vertex 0.999941111 0.0108520864 0
   vertex -0.46194914 0.886906445 0
  endloop
 endfacet
facet normal 0 0 1
  outer loop
   vertex -0.452297598 0.891867101 0
   vertex 0.999941111 0.0108520864 0
   vertex -0.4425928 0.896722674 0
  endloop
 endfacet
facet normal 0 0 1
  outer loop
   vertex -0.518676639 0.854970515 0
   vertex 0.999941111 0.0108520864 0
   vertex -0.5093683 0.860548615 0
  endloop
 endfacet
facet normal 0 0 1
  outer loop
   vertex -0.5093683 0.860548615 0
   vertex 0.999941111 0.0108520864 0
   vertex -0.5 0.866025388 0
  endloop
 endfacet
facet normal 0 0 1
  outer loop
   vertex -0.5 0.866025388 0
   vertex 0.999941111 0.0108520864 0
   vertex -0.49057281 0.871400177 0
  endloop
 endfacet
facet normal 0 0 1
  outer loop
   vertex -0.481087863 0.876672387 0
   vertex 0.999941111 0.0108520864 0
   vertex -0.471546263 0.881841302 0
  endloop
 endfacet
facet normal 0 0 1
  outer loop
   vertex -0.527923882 0.849291682 0
   vertex 0.999941111 0.0108520864 0
   vertex -0.518676639 0.854970515 0
  endloop
 endfacet
facet normal 0 0 1
  outer loop
   vertex -0.546230733 0.837634742 0
   vertex 0.999941111 0.0108520864 0
   vertex -0.537108898 0.843512893 0
  endloop
 endfacet
facet normal 0 0 1
  outer loop
   vertex -0.537108898 0.843512893 0
   vertex 0.999941111 0.0108520864 0
   vertex -0.527923882 0.849291682 0
  endloop
 endfacet
facet normal 0 0 1
  outer loop
   vertex -0.582064152 0.813142896 0
   vertex 0.999941111 0.0108520864 0
   vertex -0.573206007 0.819411278 0
  endloop
 endfacet
facet normal 0 0 1
  outer loop
   vertex -0.573206007 0.819411278 0
   vertex 0.999941111 0.0108520864 0
   vertex -0.564280331 0.82558322 0
  endloop
 endfacet
facet normal 0 0 1
  outer loop
   vertex -0.564280331 0.82558322 0
   vertex 0.999941111 0.0108520864 0
   vertex -0.555288255 0.831657946 0
  endloop
 endfacet
facet normal 0 0 1
  outer loop
   vertex -0.555288255 0.831657946 0
   vertex 0.999941111 0.0108520864 0
   vertex -0.546230733 0.837634742 0
  endloop
 endfacet
facet normal 0 0 1
  outer loop
   vertex -0.666707754 0.745319247 0
   vertex 0.999941111 0.0108520864 0
   vertex -0.658580601 0.75251019 0
  endloop
 endfacet
facet normal 0 0 1
  outer loop
   vertex -0.682725549 0.730674922 0
   vertex 0.999941111 0.0108520864 0
   vertex -0.674756348 0.738040566 0
  endloop
 endfacet
facet normal 0 0 1
  outer loop
   vertex -0.674756348 0.738040566 0
   vertex 0.999941111 0.0108520864 0
   vertex -0.666707754 0.745319247 0
  endloop
 endfacet
facet normal 0 0 1
  outer loop
   vertex -0.728820026 0.684705317 0
   vertex 0.999941111 0.0108520864 0
   vertex -0.721346974 0.692573845 0
  endloop
 endfacet
facet normal 0 0 1
  outer loop
   vertex -0.721346974 0.692573845 0
   vertex 0.999941111 0.0108520864 0
   vertex -0.713788986 0.700360775 0
  endloop
 endfacet
facet normal 0 0 1
  outer loop
   vertex -0.706146955 0.708065271 0
   vertex 0.999941111 0.0108520864 0
   vertex -0.698421776 0.71568644 0
  endloop
 endfacet
facet normal 0 0 1
  outer loop
   vertex -0.690614283 0.723223269 0
   vertex 0.999941111 0.0108520864 0
   vertex -0.682725549 0.730674922 0
  endloop
 endfacet
facet normal 0 0 1
  outer loop
   vertex -0.658580601 0.75251019 0
   vertex 0.999941111 0.0108520864 0
   vertex -0.650375903 0.75961256 0
  endloop
 endfacet
facet normal 0 0 1
  outer loop
   vertex -0.650375903 0.75961256 0
   vertex 0.999941111 0.0108520864 0
   vertex -0.642094612 0.766625404 0
  endloop
 endfacet
facet normal 0 0 1
  outer loop
   vertex -0.633737683 0.773548007 0
   vertex 0.999941111 0.0108520864 0
   vertex -0.625306189 0.780379534 0
  endloop
 endfacet
facet normal 0 0 1
  outer loop
   vertex -0.599573791 0.800319493 0
   vertex 0.999941111 0.0108520864 0
   vertex -0.590853751 0.806778669 0
  endloop
 endfacet
facet normal 0 0 1
  outer loop
   vertex -0.590853751 0.806778669 0
   vertex 0.999941111 0.0108520864 0
   vertex -0.582064152 0.813142896 0
  endloop
 endfacet
facet normal 0 0 1
  outer loop
   vertex -0.616801023 0.78711915 0
   vertex 0.999941111 0.0108520864 0
   vertex -0.6082232 0.793766022 0
  endloop
 endfacet
facet normal 0 0 1
  outer loop
   vertex -0.6082232 0.793766022 0
   vertex 0.999941111 0.0108520864 0
   vertex -0.599573791 0.800319493 0
  endloop
 endfacet
facet normal 0 0 1
  outer loop
   vertex 0.514030039 0.857772171 0
   vertex 0.999941111 0.0108520864 0
   vertex 0.52330792 0.852143645 0
  endloop
 endfacet
facet normal 0 0 1
  outer loop
   vertex 0.466754586 0.884386897 0
   vertex 0.999941111 0.0108520864 0
   vertex 0.476324081 0.879269779 0
  endloop
 endfacet
facet normal 0 0 1
  outer loop
   vertex 0.495293707 0.868725598 0
   vertex 0.999941111 0.0108520864 0
   vertex 0.504691601 0.863299727 0
  endloop
 endfacet
facet normal 0 0 1
  outer loop
   vertex 0.52330792 0.852143645 0
   vertex 0.999941111 0.0108520864 0
   vertex 0.532524228 0.846414745 0
  endloop
 endfacet
facet normal 0 0 1
  outer loop
   vertex 0.532524228 0.846414745 0
   vertex 0.999941111 0.0108520864 0
   vertex 0.541677833 0.840586185 0
  endloop
 endfacet
facet normal 0 0 1
  outer loop
   vertex 0.541677833 0.840586185 0
   vertex 0.999941111 0.0108520864 0
   vertex 0.550767601 0.834658623 0
  endloop
 endfacet
facet normal 0 0 1
  outer loop
   vertex 0.595222533 0.803560913 0
   vertex 0.999941111 0.0108520864 0
   vertex 0.603907406 0.79705447 0
  endloop
 endfacet
facet normal 0 0 1
  outer loop
   vertex 0.603907406 0.79705447 0
   vertex 0.999941111 0.0108520864 0
   vertex 0.612521112 0.790454209 0
  endloop
 endfacet
facet normal 0 0 1
  outer loop
   vertex 0.612521112 0.790454209 0
   vertex 0.999941111 0.0108520864 0
   vertex 0.621062756 0.783760846 0
  endloop
 endfacet
facet normal 0 0 1
  outer loop
   vertex 0.577643573 0.816289127 0
   vertex 0.999941111 0.0108520864 0
   vertex 0.586467564 0.809972703 0
  endloop
 endfacet
facet normal 0 0 1
  outer loop
   vertex 0.586467564 0.809972703 0
   vertex 0.999941111 0.0108520864 0
   vertex 0.595222533 0.803560913 0
  endloop
 endfacet
facet normal 0 0 1
  outer loop
   vertex 0.550767601 0.834658623 0
   vertex 0.999941111 0.0108520864 0
   vertex 0.559792519 0.828632832 0
  endloop
 endfacet
facet normal 0 0 1
  outer loop
   vertex 0.568751514 0.822509408 0
   vertex 0.999941111 0.0108520864 0
   vertex 0.577643573 0.816289127 0
  endloop
 endfacet
facet normal 0 0 1
  outer loop
   vertex 0.427938253 0.903807998 0
   vertex 0.999941111 0.0108520864 0
   vertex 0.437720805 0.899110973 0
  endloop
 endfacet
facet normal 0 0 1
  outer loop
   vertex 0.437720805 0.899110973 0
   vertex 0.999941111 0.0108520864 0
   vertex 0.4474518 0.894308031 0
  endloop
 endfacet
facet normal 0 0 1
  outer loop
   vertex 0.4474518 0.894308031 0
   vertex 0.999941111 0.0108520864 0
   vertex 0.457130104 0.889399827 0
  endloop
 endfacet
facet normal 0 0 1
  outer loop
   vertex 0.408223152 0.912882149 0
   vertex 0.999941111 0.0108520864 0
   vertex 0.418105304 0.908398569 0
  endloop
 endfacet
facet normal 0 0 1
  outer loop
   vertex 0.418105304 0.908398569 0
   vertex 0.999941111 0.0108520864 0
   vertex 0.427938253 0.903807998 0
  endloop
 endfacet
facet normal 0 0 1
  outer loop
   vertex 0.388315737 0.921526372 0
   vertex 0.999941111 0.0108520864 0
   vertex 0.398292899 0.917258263 0
  endloop
 endfacet
facet normal 0 0 1
  outer loop
   vertex 0.398292899 0.917258263 0
   vertex 0.999941111 0.0108520864 0
   vertex 0.408223152 0.912882149 0
  endloop
 endfacet
facet normal 0 0 1
  outer loop
   vertex 0.35811466 0.933677614 0
   vertex 0.999941111 0.0108520864 0
   vertex 0.368225455 0.929736555 0
  endloop
 endfacet
facet normal 0 0 1
  outer loop
   vertex 0.368225455 0.929736555 0
   vertex 0.999941111 0.0108520864 0
   vertex 0.378292859 0.925685942 0
  endloop
 endfacet
facet normal 0 0 1
  outer loop
   vertex 0.378292859 0.925685942 0
   vertex 0.999941111 0.0108520864 0
   vertex 0.388315737 0.921526372 0
  endloop
 endfacet
facet normal 0 0 1
  outer loop
   vertex 0.33776778 0.941229463 0
   vertex 0.999941111 0.0108520864 0
   vertex 0.347961694 0.937508762 0
  endloop
 endfacet
facet normal 0 0 1
  outer loop
   vertex 0.347961694 0.937508762 0
   vertex 0.999941111 0.0108520864 0
   vertex 0.35811466 0.933677614 0
  endloop
 endfacet
facet normal 0 0 1
  outer loop
   vertex 0.317261785 0.948337972 0
   vertex 0.999941111 0.0108520864 0
   vertex 0.32753405 0.944839358 0
  endloop
 endfacet
facet normal 0 0 1
  outer loop
   vertex 0.32753405 0.944839358 0
   vertex 0.999941111 0.0108520864 0
   vertex 0.33776778 0.941229463 0
  endloop
 endfacet
facet normal 0 0 1
  outer loop
   vertex 0.127163276 0.991881788 0
   vertex 0.999941111 0.0108520864 0
   vertex 0.137919262 0.990443468 0
  endloop
 endfacet
facet normal 0 0 1
  outer loop
   vertex 0.137919262 0.990443468 0
   vertex 0.999941111 0.0108520864 0
   vertex 0.148659021 0.988888502 0
  endloop
 endfacet
facet normal 0 0 1
  outer loop
   vertex 0.148659021 0.988888502 0
   vertex 0.999941111 0.0108520864 0
   vertex 0.15938127 0.987217128 0
  endloop
 endfacet
facet normal 0 0 1
  outer loop
   vertex 0.116392307 0.993203342 0
   vertex 0.999941111 0.0108520864 0
   vertex 0.127163276 0.991881788 0
  endloop
 endfacet
facet normal 0 0 1
  outer loop
   vertex 0.0948105231 0.995495319 0
   vertex 0.999941111 0.0108520864 0
   vertex 0.105607636 0.994407892 0
  endloop
 endfacet
facet normal 0 0 1
  outer loop
   vertex 0.105607636 0.994407892 0
   vertex 0.999941111 0.0108520864 0
   vertex 0.116392307 0.993203342 0
  endloop
 endfacet
facet normal 0 0 1
  outer loop
   vertex 0.0189894885 0.999819696 0
   vertex 0.999941111 0.0108520864 0
   vertex 0.0298379883 0.999554753 0
  endloop
 endfacet
facet normal 0 0 1
  outer loop
   vertex -0.00271294359 0.999996305 0
   vertex 0.999941111 0.0108520864 0
   vertex 0.00813875161 0.99996686 0
  endloop
 endfacet
facet normal 0 0 1
  outer loop
   vertex 0.00813875161 0.99996686 0
   vertex 0.999941111 0.0108520864 0
   vertex 0.0189894885 0.999819696 0
  endloop
 endfacet
facet normal 0 0 1
  outer loop
   vertex 0.0515231714 0.99867177 0
   vertex 0.999941111 0.0108520864 0
   vertex 0.062357299 0.998053908 0
  endloop
 endfacet
facet normal 0 0 1
  outer loop
   vertex 0.062357299 0.998053908 0
   vertex 0.999941111 0.0108520864 0
   vertex 0.0731840804 0.997318447 0
  endloop
 endfacet
facet normal 0 0 1
  outer loop
   vertex 0.0731840804 0.997318447 0
   vertex 0.999941111 0.0108520864 0
   vertex 0.0840022489 0.996465564 0
  endloop
 endfacet
facet normal 0 0 1
  outer loop
   vertex 0.0840022489 0.996465564 0
   vertex 0.999941111 0.0108520864 0
   vertex 0.0948105231 0.995495319 0
  endloop
 endfacet
facet normal 0 0 1
  outer loop
   vertex 0.180768192 0.983525753 0
   vertex 0.999941111 0.0108520864 0
   vertex 0.191430345 0.981506228 0
  endloop
 endfacet
facet normal 0 0 1
  outer loop
   vertex 0.15938127 0.987217128 0
   vertex 0.999941111 0.0108520864 0
   vertex 0.170084745 0.985429466 0
  endloop
 endfacet
facet normal 0 0 1
  outer loop
   vertex 0.170084745 0.985429466 0
   vertex 0.999941111 0.0108520864 0
   vertex 0.180768192 0.983525753 0
  endloop
 endfacet
facet normal 0 0 1
  outer loop
   vertex 0.191430345 0.981506228 0
   vertex 0.999941111 0.0108520864 0
   vertex 0.202069968 0.979371071 0
  endloop
 endfacet
facet normal 0 0 1
  outer loop
   vertex 0.202069968 0.979371071 0
   vertex 0.999941111 0.0108520864 0
   vertex 0.212685779 0.977120638 0
  endloop
 endfacet
facet normal 0 0 1
  outer loop
   vertex 0.212685779 0.977120638 0
   vertex 0.999941111 0.0108520864 0
   vertex 0.223276556 0.974755108 0
  endloop
 endfacet
facet normal 0 0 1
  outer loop
   vertex 0.223276556 0.974755108 0
   vertex 0.999941111 0.0108520864 0
   vertex 0.233841047 0.97227484 0
  endloop
 endfacet
facet normal 0 0 1
  outer loop
   vertex 0.25488615 0.96697104 0
   vertex 0.999941111 0.0108520864 0
   vertex 0.265364319 0.964148223 0
  endloop
 endfacet
facet normal 0 0 1
  outer loop
   vertex 0.233841047 0.97227484 0
   vertex 0.999941111 0.0108520864 0
   vertex 0.244377986 0.969680071 0
  endloop
 endfacet
facet normal 0 0 1
  outer loop
   vertex 0.244377986 0.969680071 0
   vertex 0.999941111 0.0108520864 0
   vertex 0.25488615 0.96697104 0
  endloop
 endfacet
facet normal 0 0 1
  outer loop
   vertex 0.265364319 0.964148223 0
   vertex 0.999941111 0.0108520864 0
   vertex 0.275811195 0.961211801 0
  endloop
 endfacet
facet normal 0 0 1
  outer loop
   vertex 0.275811195 0.961211801 0
   vertex 0.999941111 0.0108520864 0
   vertex 0.286225617 0.958162248 0
  endloop
 endfacet
facet normal 0 0 1
  outer loop
   vertex 0.296606332 0.954999804 0
   vertex 0.999941111 0.0108520864 0
   vertex 0.306952149 0.951724946 0
  endloop
 endfacet
facet normal 0 0 1
  outer loop
   vertex 0.306952149 0.951724946 0
   vertex 0.999941111 0.0108520864 0
   vertex 0.317261785 0.948337972 0
  endloop
 endfacet
facet normal 0 0 1
  outer loop
   vertex 0.709978461 0.704223394 0
   vertex 0.999941111 0.0108520864 0
   vertex 0.71757859 0.696477592 0
  endloop
 endfacet
facet normal 0 0 1
  outer loop
   vertex 0.725094199 0.688649714 0
   vertex 0.999941111 0.0108520864 0
   vertex 0.732524455 0.680740714 0
  endloop
 endfacet
facet normal 0 0 1
  outer loop
   vertex 0.732524455 0.680740714 0
   vertex 0.999941111 0.0108520864 0
   vertex 0.739868402 0.672751606 0
  endloop
 endfacet
facet normal 0 0 1
  outer loop
   vertex 0.694528282 0.719465435 0
   vertex 0.999941111 0.0108520864 0
   vertex 0.702294707 0.711886346 0
  endloop
 endfacet
facet normal 0 0 1
  outer loop
   vertex 0.678750932 0.734368563 0
   vertex 0.999941111 0.0108520864 0
   vertex 0.686680019 0.726959765 0
  endloop
 endfacet
facet normal 0 0 1
  outer loop
   vertex 0.686680019 0.726959765 0
   vertex 0.999941111 0.0108520864 0
   vertex 0.694528282 0.719465435 0
  endloop
 endfacet
facet normal 0 0 1
  outer loop
   vertex 0.637925565 0.770098031 0
   vertex 0.999941111 0.0108520864 0
   vertex 0.646244764 0.763130188 0
  endloop
 endfacet
facet normal 0 0 1
  outer loop
   vertex 0.621062756 0.783760846 0
   vertex 0.999941111 0.0108520864 0
   vertex 0.629531205 0.776975214 0
  endloop
 endfacet
facet normal 0 0 1
  outer loop
   vertex 0.629531205 0.776975214 0
   vertex 0.999941111 0.0108520864 0
   vertex 0.637925565 0.770098031 0
  endloop
 endfacet
facet normal 0 0 1
  outer loop
   vertex 0.646244764 0.763130188 0
   vertex 0.999941111 0.0108520864 0
   vertex 0.654487848 0.756072521 0
  endloop
 endfacet
facet normal 0 0 1
  outer loop
   vertex 0.654487848 0.756072521 0
   vertex 0.999941111 0.0108520864 0
   vertex 0.662653923 0.748925745 0
  endloop
 endfacet
facet normal 0 0 1
  outer loop
   vertex 0.662653923 0.748925745 0
   vertex 0.999941111 0.0108520864 0
   vertex 0.670741916 0.741690814 0
  endloop
 endfacet
facet normal 0 0 1
  outer loop
   vertex 0.670741916 0.741690814 0
   vertex 0.999941111 0.0108520864 0
   vertex 0.678750932 0.734368563 0
  endloop
 endfacet
facet normal 0 0 1
  outer loop
   vertex 0.775264442 0.631636798 0
   vertex 0.999941111 0.0108520864 0
   vertex 0.782073081 0.623186767 0
  endloop
 endfacet
facet normal 0 0 1
  outer loop
   vertex 0.739868402 0.672751606 0
   vertex 0.999941111 0.0108520864 0
   vertex 0.747125268 0.664683282 0
  endloop
 endfacet
facet normal 0 0 1
  outer loop
   vertex 0.768364549 0.640012443 0
   vertex 0.999941111 0.0108520864 0
   vertex 0.775264442 0.631636798 0
  endloop
 endfacet
facet normal 0 0 1
  outer loop
   vertex 0.782073081 0.623186767 0
   vertex 0.999941111 0.0108520864 0
   vertex 0.78878957 0.614663303 0
  endloop
 endfacet
facet normal 0 0 1
  outer loop
   vertex 0.78878957 0.614663303 0
   vertex 0.999941111 0.0108520864 0
   vertex 0.795413196 0.606067538 0
  endloop
 endfacet
facet normal 0 0 1
  outer loop
   vertex 0.795413196 0.606067538 0
   vertex 0.999941111 0.0108520864 0
   vertex 0.801943123 0.597400367 0
  endloop
 endfacet
facet normal 0 0 1
  outer loop
   vertex 0.801943123 0.597400367 0
   vertex 0.999941111 0.0108520864 0
   vertex 0.808378637 0.588662863 0
  endloop
 endfacet
facet normal 0 0 1
  outer loop
   vertex 0.827111065 0.562038481 0
   vertex 0.999941111 0.0108520864 0
   vertex 0.833161354 0.553029954 0
  endloop
 endfacet
facet normal 0 0 1
  outer loop
   vertex 0.808378637 0.588662863 0
   vertex 0.999941111 0.0108520864 0
   vertex 0.814718962 0.579855978 0
  endloop
 endfacet
facet normal 0 0 1
  outer loop
   vertex 0.820963383 0.570980847 0
   vertex 0.999941111 0.0108520864 0
   vertex 0.827111065 0.562038481 0
  endloop
 endfacet
facet normal 0 0 1
  outer loop
   vertex 0.833161354 0.553029954 0
   vertex 0.999941111 0.0108520864 0
   vertex 0.839113533 0.54395628 0
  endloop
 endfacet
facet normal 0 0 1
  outer loop
   vertex 0.839113533 0.54395628 0
   vertex 0.999941111 0.0108520864 0
   vertex 0.844966948 0.53481853 0
  endloop
 endfacet
facet normal 0 0 1
  outer loop
   vertex 0.844966948 0.53481853 0
   vertex 0.999941111 0.0108520864 0
   vertex 0.850720823 0.525617838 0
  endloop
 endfacet
facet normal 0 0 1
  outer loop
   vertex 0.850720823 0.525617838 0
   vertex 0.999941111 0.0108520864 0
   vertex 0.856374502 0.516355217 0
  endloop
 endfacet
facet normal 0 0 1
  outer loop
   vertex 0.920469522 0.390814364 0
   vertex 0.999941111 0.0108520864 0
   vertex 0.924656272 0.38080281 0
  endloop
 endfacet
facet normal 0 0 1
  outer loop
   vertex 0.924656272 0.38080281 0
   vertex 0.999941111 0.0108520864 0
   vertex 0.928734124 0.370746404 0
  endloop
 endfacet
facet normal 0 0 1
  outer loop
   vertex 0.932702661 0.360646367 0
   vertex 0.999941111 0.0108520864 0
   vertex 0.936561286 0.350503832 0
  endloop
 endfacet
facet normal 0 0 1
  outer loop
   vertex 0.911771357 0.410698235 0
   vertex 0.999941111 0.0108520864 0
   vertex 0.916174352 0.400779903 0
  endloop
 endfacet
facet normal 0 0 1
  outer loop
   vertex 0.916174352 0.400779903 0
   vertex 0.999941111 0.0108520864 0
   vertex 0.920469522 0.390814364 0
  endloop
 endfacet
facet normal 0 0 1
  outer loop
   vertex 0.897920132 0.440158427 0
   vertex 0.999941111 0.0108520864 0
   vertex 0.902643681 0.430388659 0
  endloop
 endfacet
facet normal 0 0 1
  outer loop
   vertex 0.902643681 0.430388659 0
   vertex 0.999941111 0.0108520864 0
   vertex 0.907260895 0.420568198 0
  endloop
 endfacet
facet normal 0 0 1
  outer loop
   vertex 0.872727871 0.488206953 0
   vertex 0.999941111 0.0108520864 0
   vertex 0.877974331 0.478707731 0
  endloop
 endfacet
facet normal 0 0 1
  outer loop
   vertex 0.856374502 0.516355217 0
   vertex 0.999941111 0.0108520864 0
   vertex 0.86192733 0.507031798 0
  endloop
 endfacet
facet normal 0 0 1
  outer loop
   vertex 0.86192733 0.507031798 0
   vertex 0.999941111 0.0108520864 0
   vertex 0.867378712 0.497648686 0
  endloop
 endfacet
facet normal 0 0 1
  outer loop
   vertex 0.877974331 0.478707731 0
   vertex 0.999941111 0.0108520864 0
   vertex 0.883117378 0.469152153 0
  endloop
 endfacet
facet normal 0 0 1
  outer loop
   vertex 0.883117378 0.469152153 0
   vertex 0.999941111 0.0108520864 0
   vertex 0.888156414 0.459541321 0
  endloop
 endfacet
facet normal 0 0 1
  outer loop
   vertex 0.888156414 0.459541321 0
   vertex 0.999941111 0.0108520864 0
   vertex 0.893090844 0.449876368 0
  endloop
 endfacet
facet normal 0 0 1
  outer loop
   vertex 0.893090844 0.449876368 0
   vertex 0.999941111 0.0108520864 0
   vertex 0.897920132 0.440158427 0
  endloop
 endfacet
facet normal 0 0 1
  outer loop
   vertex 0.943947315 0.330096155 0
   vertex 0.999941111 0.0108520864 0
   vertex 0.947473824 0.319833398 0
  endloop
 endfacet
facet normal 0 0 1
  outer loop
   vertex 0.936561286 0.350503832 0
   vertex 0.999941111 0.0108520864 0
   vertex 0.940309644 0.340320021 0
  endloop
 endfacet
facet normal 0 0 1
  outer loop
   vertex 0.940309644 0.340320021 0
   vertex 0.999941111 0.0108520864 0
   vertex 0.943947315 0.330096155 0
  endloop
 endfacet
facet normal 0 0 1
  outer loop
   vertex 0.950888693 0.30953297 0
   vertex 0.999941111 0.0108520864 0
   vertex 0.954191625 0.299196124 0
  endloop
 endfacet
facet normal 0 0 1
  outer loop
   vertex 0.960460007 0.278417915 0
   vertex 0.999941111 0.0108520864 0
   vertex 0.963424742 0.267978996 0
  endloop
 endfacet
facet normal 0 0 1
  outer loop
   vertex 0.963424742 0.267978996 0
   vertex 0.999941111 0.0108520864 0
   vertex 0.96627599 0.257508546 0
  endloop
 endfacet
facet normal 0 0 1
  outer loop
   vertex 0.969013512 0.247007772 0
   vertex 0.999941111 0.0108520864 0
   vertex 0.971636891 0.236477911 0
  endloop
 endfacet
facet normal 0 0 1
  outer loop
   vertex 0.976540029 0.215335876 0
   vertex 0.999941111 0.0108520864 0
   vertex 0.978819251 0.204726204 0
  endloop
 endfacet
facet normal 0 0 1
  outer loop
   vertex 0.971636891 0.236477911 0
   vertex 0.999941111 0.0108520864 0
   vertex 0.97414583 0.2259202 0
  endloop
 endfacet
facet normal 0 0 1
  outer loop
   vertex 0.97414583 0.2259202 0
   vertex 0.999941111 0.0108520864 0
   vertex 0.976540029 0.215335876 0
  endloop
 endfacet
facet normal 0 0 1
  outer loop
   vertex 0.980983257 0.194092408 0
   vertex 0.999941111 0.0108520864 0
   vertex 0.98303169 0.183435768 0
  endloop
 endfacet
facet normal 0 0 1
  outer loop
   vertex 0.98303169 0.183435768 0
   vertex 0.999941111 0.0108520864 0
   vertex 0.984964371 0.172757536 0
  endloop
 endfacet
facet normal 0 0 1
  outer loop
   vertex 0.99523443 0.0975108966 0
   vertex 0.999941111 0.0108520864 0
   vertex 0.996234 0.0867052972 0
  endloop
 endfacet
facet normal 0 0 1
  outer loop
   vertex 0.997116208 0.0758894831 0
   vertex 0.999941111 0.0108520864 0
   vertex 0.997881055 0.0650647357 0
  endloop
 endfacet
facet normal 0 0 1
  outer loop
   vertex 0.999058068 0.0433935225 0
   vertex 0.999941111 0.0108520864 0
   vertex 0.999470115 0.0325496122 0
  endloop
 endfacet
facet normal 0 0 1
  outer loop
   vertex 0.997881055 0.0650647357 0
   vertex 0.999941111 0.0108520864 0
   vertex 0.998528361 0.0542323217 0
  endloop
 endfacet
facet normal 0 0 1
  outer loop
   vertex 0.998528361 0.0542323217 0
   vertex 0.999941111 0.0108520864 0
   vertex 0.999058068 0.0433935225 0
  endloop
 endfacet
facet normal 0 0 1
  outer loop
   vertex 0.999058068 -0.0433935225 0
   vertex 0.999470115 -0.0325496122 0
   vertex 0.999941111 -0.0108520864 0
  endloop
 endfacet
facet normal 0 0 1
  outer loop
   vertex 0.999470115 0.0325496122 0
   vertex 0.999941111 0.0108520864 0
   vertex 0.999764502 0.0217018723 0
  endloop
 endfacet
facet normal 0 0 1
  outer loop
   vertex 0.999941111 -0.0108520864 0
   vertex 1 -2.55520717e-07 0
   vertex 0.999941111 0.0108520864 0
  endloop
 endfacet
facet normal 0 0 1
  outer loop
   vertex 0.999941111 -0.0108520864 0
   vertex 0.999470115 -0.0325496122 0
   vertex 0.999764502 -0.0217018723 0
  endloop
 endfacet
facet normal 0 0 1
  outer loop
   vertex 0.999941111 -0.0108520864 0
   vertex 0.997881055 -0.0650647357 0
   vertex 0.998528361 -0.0542323217 0
  endloop
 endfacet
facet normal 0 0 1
  outer loop
   vertex 0.999941111 -0.0108520864 0
   vertex 0.998528361 -0.0542323217 0
   vertex 0.999058068 -0.0433935225 0
  endloop
 endfacet
facet normal 0 0 1
  outer loop
   vertex 0.999941111 -0.0108520864 0
   vertex 0.99153316 -0.129853725 0
   vertex 0.992883921 -0.119086385 0
  endloop
 endfacet
facet normal 0 0 1
  outer loop
   vertex 0.999941111 -0.0108520864 0
   vertex 0.992883921 -0.119086385 0
   vertex 0.994117737 -0.108305022 0
  endloop
 endfacet
facet normal 0 0 1
  outer loop
   vertex 0.999941111 -0.0108520864 0
   vertex 0.996234 -0.0867052972 0
   vertex 0.997116208 -0.0758894831 0
  endloop
 endfacet
facet normal 0 0 1
  outer loop
   vertex 0.999941111 -0.0108520864 0
   vertex 0.997116208 -0.0758894831 0
   vertex 0.997881055 -0.0650647357 0
  endloop
 endfacet
facet normal 0 0 1
  outer loop
   vertex 0.999941111 -0.0108520864 0
   vertex 0.969013512 -0.247007772 0
   vertex 0.971636891 -0.236477911 0
  endloop
 endfacet
facet normal 0 0 1
  outer loop
   vertex 0.999941111 -0.0108520864 0
   vertex 0.963424742 -0.267978996 0
   vertex 0.96627599 -0.257508546 0
  endloop
 endfacet
facet normal 0 0 1
  outer loop
   vertex 0.999941111 -0.0108520864 0
   vertex 0.96627599 -0.257508546 0
   vertex 0.969013512 -0.247007772 0
  endloop
 endfacet
facet normal 0 0 1
  outer loop
   vertex 0.999941111 -0.0108520864 0
   vertex 0.943947315 -0.330096155 0
   vertex 0.947473824 -0.319833398 0
  endloop
 endfacet
facet normal 0 0 1
  outer loop
   vertex 0.999941111 -0.0108520864 0
   vertex 0.947473824 -0.319833398 0
   vertex 0.950888693 -0.30953297 0
  endloop
 endfacet
facet normal 0 0 1
  outer loop
   vertex 0.999941111 -0.0108520864 0
   vertex 0.950888693 -0.30953297 0
   vertex 0.954191625 -0.299196124 0
  endloop
 endfacet
facet normal 0 0 1
  outer loop
   vertex 0.999941111 -0.0108520864 0
   vertex 0.954191625 -0.299196124 0
   vertex 0.957382202 -0.288824022 0
  endloop
 endfacet
facet normal 0 0 1
  outer loop
   vertex 0.999941111 -0.0108520864 0
   vertex 0.971636891 -0.236477911 0
   vertex 0.97414583 -0.2259202 0
  endloop
 endfacet
facet normal 0 0 1
  outer loop
   vertex 0.999941111 -0.0108520864 0
   vertex 0.97414583 -0.2259202 0
   vertex 0.976540029 -0.215335876 0
  endloop
 endfacet
facet normal 0 0 1
  outer loop
   vertex 0.999941111 -0.0108520864 0
   vertex 0.976540029 -0.215335876 0
   vertex 0.978819251 -0.204726204 0
  endloop
 endfacet
facet normal 0 0 1
  outer loop
   vertex 0.999941111 -0.0108520864 0
   vertex 0.986781061 -0.162058949 0
   vertex 0.988481581 -0.151341274 0
  endloop
 endfacet
facet normal 0 0 1
  outer loop
   vertex 0.999941111 -0.0108520864 0
   vertex 0.988481581 -0.151341274 0
   vertex 0.990065634 -0.140605778 0
  endloop
 endfacet
facet normal 0 0 1
  outer loop
   vertex 0.999941111 -0.0108520864 0
   vertex 0.980983257 -0.194092408 0
   vertex 0.98303169 -0.183435768 0
  endloop
 endfacet
facet normal 0 0 1
  outer loop
   vertex 0.999941111 -0.0108520864 0
   vertex 0.984964371 -0.172757536 0
   vertex 0.986781061 -0.162058949 0
  endloop
 endfacet
facet normal 0 0 1
  outer loop
   vertex 0.999941111 -0.0108520864 0
   vertex 0.940309644 -0.340320021 0
   vertex 0.943947315 -0.330096155 0
  endloop
 endfacet
facet normal 0 0 1
  outer loop
   vertex 0.999941111 -0.0108520864 0
   vertex 0.928734124 -0.370746404 0
   vertex 0.932702661 -0.360646367 0
  endloop
 endfacet
facet normal 0 0 1
  outer loop
   vertex 0.999941111 -0.0108520864 0
   vertex 0.932702661 -0.360646367 0
   vertex 0.936561286 -0.350503832 0
  endloop
 endfacet
facet normal 0 0 1
  outer loop
   vertex 0.999941111 -0.0108520864 0
   vertex 0.916174352 -0.400779903 0
   vertex 0.920469522 -0.390814364 0
  endloop
 endfacet
facet normal 0 0 1
  outer loop
   vertex 0.999941111 -0.0108520864 0
   vertex 0.920469522 -0.390814364 0
   vertex 0.924656272 -0.38080281 0
  endloop
 endfacet
facet normal 0 0 1
  outer loop
   vertex 0.999941111 -0.0108520864 0
   vertex 0.924656272 -0.38080281 0
   vertex 0.928734124 -0.370746404 0
  endloop
 endfacet
facet normal 0 0 1
  outer loop
   vertex 0.999941111 -0.0108520864 0
   vertex 0.907260895 -0.420568198 0
   vertex 0.911771357 -0.410698235 0
  endloop
 endfacet
facet normal 0 0 1
  outer loop
   vertex 0.999941111 -0.0108520864 0
   vertex 0.893090844 -0.449876368 0
   vertex 0.897920132 -0.440158427 0
  endloop
 endfacet
facet normal 0 0 1
  outer loop
   vertex 0.999941111 -0.0108520864 0
   vertex 0.897920132 -0.440158427 0
   vertex 0.902643681 -0.430388659 0
  endloop
 endfacet
facet normal 0 0 1
  outer loop
   vertex 0.999941111 -0.0108520864 0
   vertex 0.867378712 -0.497648686 0
   vertex 0.872727871 -0.488206953 0
  endloop
 endfacet
facet normal 0 0 1
  outer loop
   vertex 0.999941111 -0.0108520864 0
   vertex 0.872727871 -0.488206953 0
   vertex 0.877974331 -0.478707731 0
  endloop
 endfacet
facet normal 0 0 1
  outer loop
   vertex 0.999941111 -0.0108520864 0
   vertex 0.877974331 -0.478707731 0
   vertex 0.883117378 -0.469152153 0
  endloop
 endfacet
facet normal 0 0 1
  outer loop
   vertex 0.999941111 -0.0108520864 0
   vertex 0.888156414 -0.459541321 0
   vertex 0.893090844 -0.449876368 0
  endloop
 endfacet
facet normal 0 0 1
  outer loop
   vertex 0.999941111 -0.0108520864 0
   vertex 0.808378637 -0.588662863 0
   vertex 0.814718962 -0.579855978 0
  endloop
 endfacet
facet normal 0 0 1
  outer loop
   vertex 0.999941111 -0.0108520864 0
   vertex 0.795413196 -0.606067538 0
   vertex 0.801943123 -0.597400367 0
  endloop
 endfacet
facet normal 0 0 1
  outer loop
   vertex 0.999941111 -0.0108520864 0
   vertex 0.801943123 -0.597400367 0
   vertex 0.808378637 -0.588662863 0
  endloop
 endfacet
facet normal 0 0 1
  outer loop
   vertex 0.999941111 -0.0108520864 0
   vertex 0.754294157 -0.656536639 0
   vertex 0.761374176 -0.648312688 0
  endloop
 endfacet
facet normal 0 0 1
  outer loop
   vertex 0.999941111 -0.0108520864 0
   vertex 0.768364549 -0.640012443 0
   vertex 0.775264442 -0.631636798 0
  endloop
 endfacet
facet normal 0 0 1
  outer loop
   vertex 0.999941111 -0.0108520864 0
   vertex 0.775264442 -0.631636798 0
   vertex 0.782073081 -0.623186767 0
  endloop
 endfacet
facet normal 0 0 1
  outer loop
   vertex 0.999941111 -0.0108520864 0
   vertex 0.782073081 -0.623186767 0
   vertex 0.78878957 -0.614663303 0
  endloop
 endfacet
facet normal 0 0 1
  outer loop
   vertex 0.999941111 -0.0108520864 0
   vertex 0.814718962 -0.579855978 0
   vertex 0.820963383 -0.570980847 0
  endloop
 endfacet
facet normal 0 0 1
  outer loop
   vertex 0.999941111 -0.0108520864 0
   vertex 0.827111065 -0.562038481 0
   vertex 0.833161354 -0.553029954 0
  endloop
 endfacet
facet normal 0 0 1
  outer loop
   vertex 0.999941111 -0.0108520864 0
   vertex 0.833161354 -0.553029954 0
   vertex 0.839113533 -0.54395628 0
  endloop
 endfacet
facet normal 0 0 1
  outer loop
   vertex 0.999941111 -0.0108520864 0
   vertex 0.856374502 -0.516355217 0
   vertex 0.86192733 -0.507031798 0
  endloop
 endfacet
facet normal 0 0 1
  outer loop
   vertex 0.999941111 -0.0108520864 0
   vertex 0.86192733 -0.507031798 0
   vertex 0.867378712 -0.497648686 0
  endloop
 endfacet
facet normal 0 0 1
  outer loop
   vertex 0.999941111 -0.0108520864 0
   vertex 0.839113533 -0.54395628 0
   vertex 0.844966948 -0.53481853 0
  endloop
 endfacet
facet normal 0 0 1
  outer loop
   vertex 0.999941111 -0.0108520864 0
   vertex 0.844966948 -0.53481853 0
   vertex 0.850720823 -0.525617838 0
  endloop
 endfacet
facet normal 0 0 1
  outer loop
   vertex 0.999941111 -0.0108520864 0
   vertex 0.418105304 -0.908398569 0
   vertex 0.427938253 -0.903807998 0
  endloop
 endfacet
facet normal 0 0 1
  outer loop
   vertex 0.999941111 -0.0108520864 0
   vertex 0.378292859 -0.925685942 0
   vertex 0.388315737 -0.921526372 0
  endloop
 endfacet
facet normal 0 0 1
  outer loop
   vertex 0.999941111 -0.0108520864 0
   vertex 0.388315737 -0.921526372 0
   vertex 0.398292899 -0.917258263 0
  endloop
 endfacet
facet normal 0 0 1
  outer loop
   vertex 0.999941111 -0.0108520864 0
   vertex 0.317261785 -0.948337972 0
   vertex 0.32753405 -0.944839358 0
  endloop
 endfacet
facet normal 0 0 1
  outer loop
   vertex 0.999941111 -0.0108520864 0
   vertex 0.32753405 -0.944839358 0
   vertex 0.33776778 -0.941229463 0
  endloop
 endfacet
facet normal 0 0 1
  outer loop
   vertex 0.999941111 -0.0108520864 0
   vertex 0.33776778 -0.941229463 0
   vertex 0.347961694 -0.937508762 0
  endloop
 endfacet
facet normal 0 0 1
  outer loop
   vertex 0.999941111 -0.0108520864 0
   vertex 0.296606332 -0.954999804 0
   vertex 0.306952149 -0.951724946 0
  endloop
 endfacet
facet normal 0 0 1
  outer loop
   vertex 0.999941111 -0.0108520864 0
   vertex 0.275811195 -0.961211801 0
   vertex 0.286225617 -0.958162248 0
  endloop
 endfacet
facet normal 0 0 1
  outer loop
   vertex 0.999941111 -0.0108520864 0
   vertex 0.286225617 -0.958162248 0
   vertex 0.296606332 -0.954999804 0
  endloop
 endfacet
facet normal 0 0 1
  outer loop
   vertex 0.999941111 -0.0108520864 0
   vertex 0.233841047 -0.97227484 0
   vertex 0.244377986 -0.969680071 0
  endloop
 endfacet
facet normal 0 0 1
  outer loop
   vertex 0.999941111 -0.0108520864 0
   vertex 0.244377986 -0.969680071 0
   vertex 0.25488615 -0.96697104 0
  endloop
 endfacet
facet normal 0 0 1
  outer loop
   vertex 0.999941111 -0.0108520864 0
   vertex 0.25488615 -0.96697104 0
   vertex 0.265364319 -0.964148223 0
  endloop
 endfacet
facet normal 0 0 1
  outer loop
   vertex 0.999941111 -0.0108520864 0
   vertex 0.265364319 -0.964148223 0
   vertex 0.275811195 -0.961211801 0
  endloop
 endfacet
facet normal 0 0 1
  outer loop
   vertex 0.999941111 -0.0108520864 0
   vertex 0.116392307 -0.993203342 0
   vertex 0.127163276 -0.991881788 0
  endloop
 endfacet
facet normal 0 0 1
  outer loop
   vertex 0.999941111 -0.0108520864 0
   vertex 0.0948105231 -0.995495319 0
   vertex 0.105607636 -0.994407892 0
  endloop
 endfacet
facet normal 0 0 1
  outer loop
   vertex 0.999941111 -0.0108520864 0
   vertex 0.105607636 -0.994407892 0
   vertex 0.116392307 -0.993203342 0
  endloop
 endfacet
facet normal 0 0 1
  outer loop
   vertex 0.999941111 -0.0108520864 0
   vertex 0.0406829752 -0.999172091 0
   vertex 0.0515231714 -0.99867177 0
  endloop
 endfacet
facet normal 0 0 1
  outer loop
   vertex 0.999941111 -0.0108520864 0
   vertex 0.062357299 -0.998053908 0
   vertex 0.0731840804 -0.997318447 0
  endloop
 endfacet
facet normal 0 0 1
  outer loop
   vertex 0.999941111 -0.0108520864 0
   vertex 0.0731840804 -0.997318447 0
   vertex 0.0840022489 -0.996465564 0
  endloop
 endfacet
facet normal 0 0 1
  outer loop
   vertex 0.999941111 -0.0108520864 0
   vertex 0.0840022489 -0.996465564 0
   vertex 0.0948105231 -0.995495319 0
  endloop
 endfacet
facet normal 0 0 1
  outer loop
   vertex 0.999941111 -0.0108520864 0
   vertex 0.127163276 -0.991881788 0
   vertex 0.137919262 -0.990443468 0
  endloop
 endfacet
facet normal 0 0 1
  outer loop
   vertex 0.999941111 -0.0108520864 0
   vertex 0.137919262 -0.990443468 0
   vertex 0.148659021 -0.988888502 0
  endloop
 endfacet
facet normal 0 0 1
  outer loop
   vertex 0.999941111 -0.0108520864 0
   vertex 0.148659021 -0.988888502 0
   vertex 0.15938127 -0.987217128 0
  endloop
 endfacet
facet normal 0 0 1
  outer loop
   vertex 0.999941111 -0.0108520864 0
   vertex 0.180768192 -0.983525753 0
   vertex 0.191430345 -0.981506228 0
  endloop
 endfacet
facet normal 0 0 1
  outer loop
   vertex 0.999941111 -0.0108520864 0
   vertex 0.191430345 -0.981506228 0
   vertex 0.202069968 -0.979371071 0
  endloop
 endfacet
facet normal 0 0 1
  outer loop
   vertex 0.999941111 -0.0108520864 0
   vertex 0.15938127 -0.987217128 0
   vertex 0.170084745 -0.985429466 0
  endloop
 endfacet
facet normal 0 0 1
  outer loop
   vertex 0.999941111 -0.0108520864 0
   vertex 0.170084745 -0.985429466 0
   vertex 0.180768192 -0.983525753 0
  endloop
 endfacet
facet normal 0 0 1
  outer loop
   vertex 0.999941111 -0.0108520864 0
   vertex 0.427938253 -0.903807998 0
   vertex 0.437720805 -0.899110973 0
  endloop
 endfacet
facet normal 0 0 1
  outer loop
   vertex 0.999941111 -0.0108520864 0
   vertex 0.437720805 -0.899110973 0
   vertex 0.4474518 -0.894308031 0
  endloop
 endfacet
facet normal 0 0 1
  outer loop
   vertex 0.999941111 -0.0108520864 0
   vertex 0.4474518 -0.894308031 0
   vertex 0.457130104 -0.889399827 0
  endloop
 endfacet
facet normal 0 0 1
  outer loop
   vertex 0.999941111 -0.0108520864 0
   vertex 0.495293707 -0.868725598 0
   vertex 0.504691601 -0.863299727 0
  endloop
 endfacet
facet normal 0 0 1
  outer loop
   vertex 0.999941111 -0.0108520864 0
   vertex 0.504691601 -0.863299727 0
   vertex 0.514030039 -0.857772171 0
  endloop
 endfacet
facet normal 0 0 1
  outer loop
   vertex 0.999941111 -0.0108520864 0
   vertex 0.466754586 -0.884386897 0
   vertex 0.476324081 -0.879269779 0
  endloop
 endfacet
facet normal 0 0 1
  outer loop
   vertex 0.999941111 -0.0108520864 0
   vertex 0.485837489 -0.874049127 0
   vertex 0.495293707 -0.868725598 0
  endloop
 endfacet
facet normal 0 0 1
  outer loop
   vertex 0.999941111 -0.0108520864 0
   vertex 0.52330792 -0.852143645 0
   vertex 0.532524228 -0.846414745 0
  endloop
 endfacet
facet normal 0 0 1
  outer loop
   vertex 0.999941111 -0.0108520864 0
   vertex 0.532524228 -0.846414745 0
   vertex 0.541677833 -0.840586185 0
  endloop
 endfacet
facet normal 0 0 1
  outer loop
   vertex 0.999941111 -0.0108520864 0
   vertex 0.541677833 -0.840586185 0
   vertex 0.550767601 -0.834658623 0
  endloop
 endfacet
facet normal 0 0 1
  outer loop
   vertex 0.999941111 -0.0108520864 0
   vertex 0.577643573 -0.816289127 0
   vertex 0.586467564 -0.809972703 0
  endloop
 endfacet
facet normal 0 0 1
  outer loop
   vertex 0.999941111 -0.0108520864 0
   vertex 0.603907406 -0.79705447 0
   vertex 0.612521112 -0.790454209 0
  endloop
 endfacet
facet normal 0 0 1
  outer loop
   vertex 0.999941111 -0.0108520864 0
   vertex 0.559792519 -0.828632832 0
   vertex 0.568751514 -0.822509408 0
  endloop
 endfacet
facet normal 0 0 1
  outer loop
   vertex 0.999941111 -0.0108520864 0
   vertex 0.568751514 -0.822509408 0
   vertex 0.577643573 -0.816289127 0
  endloop
 endfacet
facet normal 0 0 1
  outer loop
   vertex 0.999941111 -0.0108520864 0
   vertex 0.686680019 -0.726959765 0
   vertex 0.694528282 -0.719465435 0
  endloop
 endfacet
facet normal 0 0 1
  outer loop
   vertex 0.999941111 -0.0108520864 0
   vertex 0.694528282 -0.719465435 0
   vertex 0.702294707 -0.711886346 0
  endloop
 endfacet
facet normal 0 0 1
  outer loop
   vertex 0.999941111 -0.0108520864 0
   vertex 0.702294707 -0.711886346 0
   vertex 0.709978461 -0.704223394 0
  endloop
 endfacet
facet normal 0 0 1
  outer loop
   vertex 0.999941111 -0.0108520864 0
   vertex 0.739868402 -0.672751606 0
   vertex 0.747125268 -0.664683282 0
  endloop
 endfacet
facet normal 0 0 1
  outer loop
   vertex 0.999941111 -0.0108520864 0
   vertex 0.747125268 -0.664683282 0
   vertex 0.754294157 -0.656536639 0
  endloop
 endfacet
facet normal 0 0 1
  outer loop
   vertex 0.999941111 -0.0108520864 0
   vertex 0.725094199 -0.688649714 0
   vertex 0.732524455 -0.680740714 0
  endloop
 endfacet
facet normal 0 0 1
  outer loop
   vertex 0.999941111 -0.0108520864 0
   vertex 0.732524455 -0.680740714 0
   vertex 0.739868402 -0.672751606 0
  endloop
 endfacet
facet normal 0 0 1
  outer loop
   vertex 0.999941111 -0.0108520864 0
   vertex 0.670741916 -0.741690814 0
   vertex 0.678750932 -0.734368563 0
  endloop
 endfacet
facet normal 0 0 1
  outer loop
   vertex 0.999941111 -0.0108520864 0
   vertex 0.654487848 -0.756072521 0
   vertex 0.662653923 -0.748925745 0
  endloop
 endfacet
facet normal 0 0 1
  outer loop
   vertex 0.999941111 -0.0108520864 0
   vertex 0.662653923 -0.748925745 0
   vertex 0.670741916 -0.741690814 0
  endloop
 endfacet
facet normal 0 0 1
  outer loop
   vertex 0.999941111 -0.0108520864 0
   vertex 0.612521112 -0.790454209 0
   vertex 0.621062756 -0.783760846 0
  endloop
 endfacet
facet normal 0 0 1
  outer loop
   vertex 0.999941111 -0.0108520864 0
   vertex 0.621062756 -0.783760846 0
   vertex 0.629531205 -0.776975214 0
  endloop
 endfacet
facet normal 0 0 1
  outer loop
   vertex 0.999941111 -0.0108520864 0
   vertex 0.637925565 -0.770098031 0
   vertex 0.646244764 -0.763130188 0
  endloop
 endfacet
facet normal 0 0 1
  outer loop
   vertex 0.999941111 -0.0108520864 0
   vertex 0.646244764 -0.763130188 0
   vertex 0.654487848 -0.756072521 0
  endloop
 endfacet
endsolid MATLAB_1
